<svg width="426" height="289" viewBox="0 0 426 289" fill="none" xmlns="http://www.w3.org/2000/svg">
<g filter="url(#filter0_d_506_583)">
<path d="M410.36 71.751H331.858C331.06 71.751 330.413 72.398 330.413 73.196V275.223C330.413 276.021 331.06 276.668 331.858 276.668H410.36C411.158 276.668 411.805 276.021 411.805 275.223V73.195C411.805 72.397 411.158 71.751 410.36 71.751ZM408.916 273.778H333.304V74.64H408.916V273.778Z" fill="url(#paint0_linear_506_583)"/>
<path d="M338.785 116.2H403.434C404.232 116.2 404.879 115.553 404.879 114.755V80.622C404.879 79.824 404.232 79.177 403.434 79.177H338.785C337.987 79.177 337.34 79.824 337.34 80.622V114.755C337.341 115.554 337.988 116.2 338.785 116.2ZM340.23 82.067H401.989V113.31H340.23V82.067Z" fill="url(#paint1_linear_506_583)"/>
<path d="M338.785 164.687H403.434C404.232 164.687 404.879 164.04 404.879 163.242V129.11C404.879 128.312 404.232 127.665 403.434 127.665H338.785C337.987 127.665 337.34 128.312 337.34 129.11V163.242C337.341 164.04 337.988 164.687 338.785 164.687ZM340.23 130.554H401.989V161.797H340.23V130.554Z" fill="url(#paint2_linear_506_583)"/>
<path d="M338.785 213.174H403.434C404.232 213.174 404.879 212.527 404.879 211.729V177.596C404.879 176.798 404.232 176.151 403.434 176.151H338.785C337.987 176.151 337.34 176.798 337.34 177.596V211.729C337.341 212.526 337.988 213.174 338.785 213.174ZM340.23 179.041H401.989V210.284H340.23V179.041Z" fill="url(#paint3_linear_506_583)"/>
<path d="M338.785 261.66H403.434C404.232 261.66 404.879 261.013 404.879 260.215V226.083C404.879 225.285 404.232 224.638 403.434 224.638H338.785C337.987 224.638 337.34 225.285 337.34 226.083V260.215C337.341 261.012 337.988 261.66 338.785 261.66ZM340.23 227.528H401.989V258.77H340.23V227.528Z" fill="url(#paint4_linear_506_583)"/>
<path d="M312.024 0H100.585C99.7866 0 99.1396 0.647 99.1396 1.445V102.057V106.763C99.1396 107.561 99.7866 108.208 100.585 108.208H312.023C312.821 108.208 313.468 107.561 313.468 106.763V102.057V1.445C313.468 0.647 312.821 0 312.024 0ZM310.579 2.89V100.612H102.03V2.89H310.579Z" fill="url(#paint5_linear_506_583)"/>
<path d="M359.575 208.322L355.022 277C354.974 277.724 354.373 278.287 353.647 278.287C352.871 278.287 352.248 277.647 352.27 276.871L354.164 208.322H359.575Z" fill="#2D717E" stroke="#2D717E" stroke-miterlimit="10" stroke-linecap="round" stroke-linejoin="round"/>
<path d="M371.21 208.322L375.763 277C375.811 277.724 376.412 278.287 377.138 278.287C377.914 278.287 378.537 277.647 378.515 276.871L376.621 208.322H371.21Z" fill="#2D717E" stroke="#2D717E" stroke-miterlimit="10" stroke-linecap="round" stroke-linejoin="round"/>
<path d="M325.598 208.322L330.151 277C330.199 277.724 330.8 278.287 331.526 278.287C332.302 278.287 332.925 277.647 332.903 276.871L331.01 208.322H325.598Z" fill="#2D717E" stroke="#2D717E" stroke-miterlimit="10" stroke-linecap="round" stroke-linejoin="round"/>
<path d="M307.005 208.322L302.452 277C302.404 277.724 301.803 278.287 301.077 278.287C300.301 278.287 299.678 277.647 299.7 276.871L301.594 208.322H307.005Z" fill="#2D717E" stroke="#2D717E" stroke-miterlimit="10" stroke-linecap="round" stroke-linejoin="round"/>
<path d="M386.277 139.009C386.277 139.009 340.875 137.314 337.037 137.314C333.199 137.314 332.306 139.009 332.306 139.009L325.829 184.705C325.829 184.705 305.68 178.948 301.722 179.668C297.764 180.388 303.672 209.096 303.672 209.096H326.478C326.478 209.096 326.626 208.477 326.888 207.373H378.361L392.034 142.248C391.21 139.33 386.277 139.009 386.277 139.009Z" fill="url(#paint6_linear_506_583)" stroke="#2D717E" stroke-miterlimit="10" stroke-linecap="round" stroke-linejoin="round"/>
<path d="M368.991 167.621C368.991 167.621 373.611 197.583 368.319 201.119C367.5 201.666 363.048 204.22 358.883 203.801C355.55 203.466 331.949 203.801 331.949 203.801C331.949 203.801 328.664 197.56 328.008 192.962C327.351 188.363 332.504 168.622 332.504 168.622L368.991 167.621Z" fill="url(#paint7_linear_506_583)" stroke="#2D717E" stroke-miterlimit="10" stroke-linecap="round" stroke-linejoin="round"/>
<path d="M330.344 183.694C330.344 183.694 296.19 187.238 294.579 188.205C292.968 189.172 285.557 195.616 286.846 199.804C288.135 203.993 284.913 204.315 287.813 204.959C290.713 205.603 332.278 205.603 332.278 205.603" fill="#69BE9A"/>
<path d="M330.344 183.694C330.344 183.694 296.19 187.238 294.579 188.205C292.968 189.172 285.557 195.616 286.846 199.804C288.135 203.993 284.913 204.315 287.813 204.959C290.713 205.603 332.278 205.603 332.278 205.603" stroke="#2D717E" stroke-miterlimit="10" stroke-linecap="round" stroke-linejoin="round"/>
<path d="M299.275 209.095H380.449V203.036H299.275V209.095Z" fill="url(#paint8_linear_506_583)" stroke="#2D717E" stroke-miterlimit="10" stroke-linecap="round" stroke-linejoin="round"/>
<path d="M361.276 184.983H312.379C312.379 184.983 309.801 187.883 309.479 194.005C309.157 200.127 309.801 201.416 314.312 203.027C318.823 204.638 358.881 203.802 358.881 203.802" fill="#69BE9A"/>
<path d="M361.276 184.983H312.379C312.379 184.983 309.801 187.883 309.479 194.005C309.157 200.127 309.801 201.416 314.312 203.027C318.823 204.638 358.881 203.802 358.881 203.802" stroke="#2D717E" stroke-miterlimit="10" stroke-linecap="round" stroke-linejoin="round"/>
<path d="M322.744 262.578L317.624 250.457L309.235 252.081L315.655 262.901L311.957 270.312L303.962 275.539C303.962 275.539 303.04 276.462 307.037 276.154C311.034 275.846 319.337 276.154 319.337 276.154L324.564 270.004C324.564 270.004 326.459 266.837 322.744 262.578Z" fill="url(#paint9_linear_506_583)" stroke="#2D717E" stroke-miterlimit="10" stroke-linecap="round" stroke-linejoin="round"/>
<path d="M324.987 267.882L325.196 275.817H323.943L322.272 271.85L324.987 267.882Z" fill="#2D717E" stroke="#2D717E" stroke-miterlimit="10" stroke-linecap="round" stroke-linejoin="round"/>
<path d="M319.337 276.153L324.564 270.003C324.564 270.003 325.92 267.712 324.051 264.411C320.332 270.768 315.382 272.684 315.382 272.684L310.228 271.44L303.962 275.537C303.962 275.537 303.04 276.46 307.037 276.152C311.035 275.846 319.337 276.153 319.337 276.153Z" fill="#2D717E" stroke="#2D717E" stroke-miterlimit="10" stroke-linecap="round" stroke-linejoin="round"/>
<path d="M302.635 200.771L319.79 252.621L307.613 254.786L283.625 200.771C283.625 200.771 281.692 192.716 286.847 190.138C292.002 187.56 307.146 186.272 307.146 186.272" fill="#69BE9A"/>
<path d="M302.635 200.771L319.79 252.621L307.613 254.786L283.625 200.771C283.625 200.771 281.692 192.716 286.847 190.138C292.002 187.56 307.146 186.272 307.146 186.272" stroke="url(#paint10_linear_506_583)" stroke-miterlimit="10" stroke-linecap="round" stroke-linejoin="round"/>
<path d="M357.643 209.096C357.643 209.096 351.735 180.387 355.693 179.668C359.651 178.948 379.8 184.705 379.8 184.705L386.277 139.009C386.277 139.009 393.113 137.93 393.833 144.046C394.553 150.163 380.45 209.095 380.45 209.095L357.643 209.096Z" fill="#2D717E" stroke="#2D717E" stroke-miterlimit="10" stroke-linecap="round" stroke-linejoin="round"/>
<path d="M288.056 124.56L285.001 119.526C284.408 118.549 283.342 117.961 282.199 117.98L279.326 118.029L274.417 116.566C273.78 116.376 273.092 116.592 272.678 117.112L272.495 117.342L277.013 119.354L272.503 121.08L267.711 118.648C267.321 118.45 266.846 118.56 266.582 118.908C266.283 119.303 266.357 119.866 266.749 120.169L273.44 125.345C273.868 125.676 274.419 125.805 274.949 125.699L282.353 124.212L284.421 126.475L288.056 124.56Z" fill="url(#paint11_linear_506_583)" stroke="#2D717E" stroke-miterlimit="10" stroke-linecap="round" stroke-linejoin="round"/>
<path d="M339.715 114.303L312.24 143.036L286.022 121.842L282.409 124.47L311.254 157.16L336.263 143.687L339.715 114.303Z" fill="url(#paint12_linear_506_583)" stroke="#2D717E" stroke-miterlimit="10" stroke-linecap="round" stroke-linejoin="round"/>
<path d="M380.815 121.639L395.214 165.89L382.796 166.247L370.444 145.485C370.444 145.485 377.387 124.534 380.815 121.639Z" fill="url(#paint13_linear_506_583)" stroke="#2D717E" stroke-miterlimit="10" stroke-linecap="round" stroke-linejoin="round"/>
<path d="M365.144 113.994L380.815 121.639L367.698 158.331L369.248 168.563L332.502 168.622L336.886 152.143L333.89 141.578C333.502 140.209 333.482 138.761 333.834 137.382L339.715 114.304L355.17 111.868L365.144 113.994Z" fill="url(#paint14_linear_506_583)" stroke="#2D717E" stroke-miterlimit="10" stroke-linecap="round" stroke-linejoin="round"/>
<path d="M364.398 111.891C364.398 111.891 367.48 113.968 367.574 115.824C367.629 116.91 367.552 118.854 367.479 120.279C367.421 121.422 367.159 122.544 366.704 123.594L361.151 130.289L354.735 125.223L349.405 127.945C349.405 127.945 348.423 119.769 350.739 114.07C353.056 108.371 363.209 110.462 364.398 111.891Z" fill="url(#paint15_linear_506_583)" stroke="#2D717E" stroke-miterlimit="10" stroke-linecap="round" stroke-linejoin="round"/>
<path d="M368.805 96.0381C368.805 96.0381 367.546 100.567 366.953 103.574C366.361 106.581 365.177 112.595 365.289 114.822C365.402 117.049 355.922 126.652 354.733 125.223C353.544 123.795 352.297 115.479 352.297 115.479L353.477 102.023C353.477 102.023 365.812 88.3751 368.805 96.0381Z" fill="url(#paint16_linear_506_583)" stroke="#2D717E" stroke-miterlimit="10" stroke-linecap="round" stroke-linejoin="round"/>
<path d="M349.011 89.0372C349.011 89.0372 347.322 91.8192 347.322 93.0122C347.322 94.2042 347.918 96.5892 347.819 97.2852C347.72 97.9812 346.03 100.266 345.832 101.061C345.633 101.856 345.931 102.452 346.527 102.75C347.123 103.048 347.719 103.446 347.719 103.446C347.719 103.446 348.216 109.606 349.011 111.196C349.806 112.786 350.502 113.481 352.886 113.68C355.271 113.879 360.934 111.395 361.729 109.407C362.524 107.42 362.623 105.035 362.723 102.153C362.822 99.2712 360.835 95.1982 359.345 91.2232C357.855 87.2482 351.595 85.1622 349.011 89.0372Z" fill="url(#paint17_linear_506_583)" stroke="#2D717E" stroke-miterlimit="10" stroke-linecap="round" stroke-linejoin="round"/>
<path d="M374.671 109.383C378.884 109.383 382.301 105.967 382.301 101.753C382.301 97.5391 378.884 94.123 374.671 94.123C370.457 94.123 367.041 97.5391 367.041 101.753C367.041 105.967 370.457 109.383 374.671 109.383Z" fill="#002B4A" stroke="#2D717E" stroke-miterlimit="10" stroke-linecap="round" stroke-linejoin="round"/>
<path d="M348.971 88.6111C348.971 88.6111 352.042 85.9661 357.568 91.2291C363.094 96.4911 360.989 104.122 364.672 105.701C368.356 107.28 375.197 99.3861 375.986 95.4391C376.775 91.4921 374.407 83.3351 367.04 81.7571C359.673 80.1771 350.636 81.2571 348.971 88.6111Z" fill="#002B4A" stroke="#2D717E" stroke-miterlimit="10" stroke-linecap="round" stroke-linejoin="round"/>
<path d="M348.971 88.6111C348.971 88.6111 348.622 83.8611 353.621 84.1251C358.62 84.3881 359.146 92.2821 361.778 95.4391C364.409 98.5971 365.725 98.0701 365.725 98.0701C365.725 98.0701 361.252 99.3861 358.358 97.8071C355.463 96.2281 354.057 87.3081 348.971 88.6111Z" fill="#002B4A" stroke="#2D717E" stroke-miterlimit="10" stroke-linecap="round" stroke-linejoin="round"/>
<path d="M357.178 83.2061C357.178 83.2061 360.863 85.1901 363.13 90.0081C365.397 94.8261 365.396 98.794 370.781 98.511C370.781 98.511 368.231 99.0781 364.263 97.0941C360.295 95.1101 359.444 89.4421 356.893 87.1741C354.342 84.9071 351.792 84.9071 351.792 84.9071" stroke="url(#paint18_linear_506_583)" stroke-width="0.5" stroke-miterlimit="10" stroke-linecap="round" stroke-linejoin="round"/>
<path d="M375.986 95.4381C375.986 95.4381 375.759 102.658 370.216 104.179" stroke="url(#paint19_linear_506_583)" stroke-width="0.5" stroke-miterlimit="10" stroke-linecap="round" stroke-linejoin="round"/>
<path d="M360.527 102.812C360.527 102.812 365.801 95.907 367.047 101.067C368.293 106.227 364.089 107.485 362.089 106.889C360.089 106.294 360.364 105.235 360.364 105.235" fill="url(#paint20_linear_506_583)"/>
<path d="M360.527 102.812C360.527 102.812 365.801 95.907 367.047 101.067C368.293 106.227 364.089 107.485 362.089 106.889C360.089 106.294 360.364 105.235 360.364 105.235" stroke="#2D717E" stroke-miterlimit="10" stroke-linecap="round" stroke-linejoin="round"/>
<path d="M348.776 161.942C348.776 161.942 338.696 163.342 337.016 163.342C335.336 163.342 331.136 168.662 331.136 168.662H349.616L348.776 161.942Z" fill="url(#paint21_linear_506_583)" stroke="#2D717E" stroke-miterlimit="10" stroke-linecap="round" stroke-linejoin="round"/>
<path d="M391.597 155.166L395.214 163.321C395.922 165.396 394.388 167.555 392.195 167.568L348.496 167.822L348.776 161.942L382.654 156.581" fill="url(#paint22_linear_506_583)"/>
<path d="M391.597 155.166L395.214 163.321C395.922 165.396 394.388 167.555 392.195 167.568L348.496 167.822L348.776 161.942L382.654 156.581" stroke="#2D717E" stroke-miterlimit="10" stroke-linecap="round" stroke-linejoin="round"/>
<path d="M333.106 267.882L333.315 275.817H332.062L330.391 271.85L333.106 267.882Z" fill="#2D717E" stroke="url(#paint23_linear_506_583)" stroke-miterlimit="10" stroke-linecap="round" stroke-linejoin="round"/>
<path d="M330.862 262.578L329.26 250.998L320.872 251.539L323.774 262.9L320.075 270.311L312.08 275.538C312.08 275.538 311.158 276.461 315.155 276.153C319.152 275.845 327.455 276.153 327.455 276.153L332.682 270.003C332.682 270.003 334.577 266.837 330.862 262.578Z" fill="url(#paint24_linear_506_583)" stroke="url(#paint25_linear_506_583)" stroke-miterlimit="10" stroke-linecap="round" stroke-linejoin="round"/>
<path d="M327.455 276.153L332.682 270.003C332.682 270.003 334.038 267.712 332.169 264.411C328.45 270.768 323.5 272.684 323.5 272.684L318.346 271.44L312.08 275.537C312.08 275.537 311.158 276.46 315.155 276.152C319.153 275.846 327.455 276.153 327.455 276.153Z" fill="#2D717E" stroke="url(#paint26_linear_506_583)" stroke-miterlimit="10" stroke-linecap="round" stroke-linejoin="round"/>
<path d="M327.031 191.844L330.614 253.162L319.249 253.429L308.165 197.718C308.165 197.718 308.377 187.116 311.767 185.896C315.156 184.676 324.157 185.987 324.157 185.987" fill="#69BE9A"/>
<path d="M327.031 191.844L330.614 253.162L319.249 253.429L308.165 197.718C308.165 197.718 308.377 187.116 311.767 185.896C315.156 184.676 324.157 185.987 324.157 185.987" stroke="url(#paint27_linear_506_583)" stroke-miterlimit="10" stroke-linecap="round" stroke-linejoin="round"/>
<path d="M277.323 59.8518L291.438 99.3978C291.438 99.3978 289.573 108.351 283.977 107.978C278.381 107.605 276.889 99.7708 275.397 98.6508C273.905 97.5318 271.666 88.9518 271.666 88.9518L277.323 59.8518Z" fill="url(#paint28_linear_506_583)" stroke="#2D717E" stroke-miterlimit="10" stroke-linecap="round" stroke-linejoin="round"/>
<path d="M240.825 51.9209L217.888 60.2059L226.685 123.812H268.077L277.323 59.8519L252.567 52.1009L240.825 51.9209Z" fill="url(#paint29_linear_506_583)" stroke="#2D717E" stroke-miterlimit="10" stroke-linecap="round" stroke-linejoin="round"/>
<path d="M243.033 62.817L246.348 67.813L243.478 110.134L247.696 121.148L252.028 110.428L248.317 68.437L251.295 61.232L247.164 55.804L243.033 62.817Z" fill="#69BE9A" stroke="#2D717E" stroke-miterlimit="10" stroke-linecap="round" stroke-linejoin="round"/>
<path d="M247.616 60.766L241.709 65.188L237.813 53.642L240.52 47.794L252.617 47.499L255.566 50.152L254.976 64.893L247.616 60.766Z" fill="url(#paint30_linear_506_583)" stroke="#2D717E" stroke-miterlimit="10" stroke-linecap="round" stroke-linejoin="round"/>
<path d="M253.87 44.791L252.942 52.218L246.328 60.766L241.377 52.101V38.176C241.377 38.176 250.041 40.342 253.87 44.791Z" fill="url(#paint31_linear_506_583)" stroke="#2D717E" stroke-miterlimit="10" stroke-linecap="round" stroke-linejoin="round"/>
<path d="M237.972 29.3558C237.972 22.6048 242.89 17.1328 248.958 17.1328C255.026 17.1328 258.408 22.9018 258.408 29.6528C258.408 31.8358 257.957 35.5758 257.777 37.5568C257.468 40.9608 256.433 42.3988 254.428 45.4508C247.835 55.4868 242.44 40.7778 239.653 35.8518C238.589 33.9698 237.972 31.7438 237.972 29.3558Z" fill="url(#paint32_linear_506_583)" stroke="#2D717E" stroke-miterlimit="10" stroke-linecap="round" stroke-linejoin="round"/>
<path d="M253.752 31.4749L254.685 38.4409L251.419 38.3569" fill="url(#paint33_linear_506_583)"/>
<path d="M253.752 31.4749L254.685 38.4409L251.419 38.3569" stroke="#2D717E" stroke-miterlimit="10" stroke-linecap="round" stroke-linejoin="round"/>
<path d="M261.054 30.2607L245.339 30.3288C245.339 30.3288 244.625 32.4038 246.118 33.8978C247.094 34.8738 251.183 34.5468 251.833 34.2878C252.482 34.0278 252.872 31.1707 252.872 31.1707H254.041C254.041 31.1707 254.171 34.1578 255.859 34.4178C257.547 34.6778 259.722 34.5898 260.145 34.2878C261.963 32.9888 261.054 30.2607 261.054 30.2607Z" fill="url(#paint34_linear_506_583)" stroke="#2D717E" stroke-miterlimit="10" stroke-linecap="round" stroke-linejoin="round"/>
<path d="M239.918 36.9799C239.918 36.9799 243.454 44.2289 244.291 46.7419C245.129 49.2549 249.317 51.2089 253.505 49.8129C257.693 48.4169 256.573 42.1809 256.573 42.1809C256.573 42.1809 252.109 38.3649 251.271 39.2029C250.433 40.0409 245.966 43.6699 245.687 42.8329C245.408 41.9949 243.453 36.9699 243.453 36.9699L242.547 33.4159L244.417 32.2109C244.977 31.7449 245.086 30.9269 244.668 30.3299L243.785 29.0679C243.564 28.7519 243.481 28.3649 243.558 27.9869C243.783 26.8909 244.415 24.6339 245.878 24.0069C247.832 23.1689 250.307 24.3839 252.54 24.9419C254.774 25.4999 257.215 23.4809 257.215 23.4809L258.17 26.8079C258.17 26.8079 261.601 23.8469 262.718 19.0999C263.835 14.3529 252.387 12.3989 248.757 12.3989C245.127 12.3989 239.264 14.3529 237.588 19.6589C235.915 24.9629 238.923 36.0519 239.918 36.9799Z" fill="#002B4A" stroke="#2D717E" stroke-miterlimit="10" stroke-linecap="round" stroke-linejoin="round"/>
<path d="M248.976 19.0908C248.976 19.0908 251.054 22.2078 248.327 22.8578C245.6 23.5068 240.275 21.1688 237.937 22.0788" stroke="url(#paint35_linear_506_583)" stroke-width="0.5" stroke-miterlimit="10" stroke-linecap="round" stroke-linejoin="round"/>
<path d="M244.3 25.9748C244.3 25.9748 240.014 25.4548 238.326 27.2738" stroke="url(#paint36_linear_506_583)" stroke-width="0.5" stroke-miterlimit="10" stroke-linecap="round" stroke-linejoin="round"/>
<path d="M254.598 41.7459C254.598 41.7459 251.444 43.3779 249.885 41.4299" stroke="url(#paint37_linear_506_583)" stroke-width="0.5" stroke-miterlimit="10" stroke-linecap="round" stroke-linejoin="round"/>
<path d="M240.449 34.772C240.449 34.772 237.354 31.368 237.354 35.081C237.354 38.794 238.282 38.794 240.139 40.032C241.996 41.27 242.615 39.723 242.615 39.723" fill="url(#paint38_linear_506_583)"/>
<path d="M240.449 34.772C240.449 34.772 237.354 31.368 237.354 35.081C237.354 38.794 238.282 38.794 240.139 40.032C241.996 41.27 242.615 39.723 242.615 39.723" stroke="#2D717E" stroke-miterlimit="10" stroke-linecap="round" stroke-linejoin="round"/>
<path d="M281.707 265.28L281.848 265.268L281.576 263.915L268.077 123.812H226.685L213.072 265.267H213.225L222 266.023C222 266.023 231.742 233.316 231.742 230.881C231.742 228.446 234.526 205.829 234.526 205.829L248.337 157.279L260.545 205.829C260.545 205.829 263.329 228.445 263.329 230.881C263.329 233.317 273.071 266.023 273.071 266.023L281.336 265.311H281.708L281.707 265.28Z" fill="url(#paint39_linear_506_583)" stroke="#2D717E" stroke-miterlimit="10" stroke-linecap="round" stroke-linejoin="round"/>
<path d="M264.983 132.066L255.778 145.217" stroke="url(#paint40_linear_506_583)" stroke-width="0.5" stroke-miterlimit="10" stroke-linecap="round" stroke-linejoin="round"/>
<path d="M260.051 135.025L254.462 144.231" stroke="url(#paint41_linear_506_583)" stroke-width="0.5" stroke-miterlimit="10" stroke-linecap="round" stroke-linejoin="round"/>
<path d="M233.751 134.368L241.97 143.244" stroke="url(#paint42_linear_506_583)" stroke-width="0.5" stroke-miterlimit="10" stroke-linecap="round" stroke-linejoin="round"/>
<path d="M233.093 137.655L244.928 149.491" stroke="url(#paint43_linear_506_583)" stroke-width="0.5" stroke-miterlimit="10" stroke-linecap="round" stroke-linejoin="round"/>
<path d="M229.148 125.162H265.64" stroke="url(#paint44_linear_506_583)" stroke-width="0.5" stroke-miterlimit="10" stroke-linecap="round" stroke-linejoin="round"/>
<path d="M213.226 265.268C213.226 265.268 207.953 269.42 204.918 270.558C201.883 271.696 196.192 274.731 196.192 274.731C196.192 274.731 196.192 276.628 201.124 276.628C206.056 276.628 220.472 276.628 220.472 276.628L220.119 265.267H213.226V265.268Z" fill="#2D717E" stroke="#2D717E" stroke-miterlimit="10" stroke-linecap="round" stroke-linejoin="round"/>
<path d="M220.408 274.564C211.076 275.08 201.626 274.525 197.225 274.189C196.591 274.519 196.192 274.731 196.192 274.731C196.192 274.731 196.192 276.628 201.124 276.628C206.056 276.628 220.472 276.628 220.472 276.628L220.408 274.564Z" fill="url(#paint45_linear_506_583)" stroke="#2D717E" stroke-miterlimit="10" stroke-linecap="round" stroke-linejoin="round"/>
<path d="M280.908 265.268C280.908 265.268 286.181 269.42 289.216 270.558C292.251 271.696 297.942 274.731 297.942 274.731C297.942 274.731 297.942 276.628 293.01 276.628C288.078 276.628 273.662 276.628 273.662 276.628L274.015 265.267H280.908V265.268Z" fill="#2D717E" stroke="#2D717E" stroke-miterlimit="10" stroke-linecap="round" stroke-linejoin="round"/>
<path d="M273.725 274.564C283.057 275.08 292.507 274.525 296.908 274.189C297.542 274.519 297.941 274.731 297.941 274.731C297.941 274.731 297.941 276.628 293.009 276.628C288.077 276.628 273.661 276.628 273.661 276.628L273.725 274.564Z" fill="url(#paint46_linear_506_583)" stroke="#2D717E" stroke-miterlimit="10" stroke-linecap="round" stroke-linejoin="round"/>
<path d="M217.888 60.2058L202.649 100.89H217.266L222.724 89.7898L217.888 60.2058Z" fill="url(#paint47_linear_506_583)" stroke="#2D717E" stroke-miterlimit="10" stroke-linecap="round" stroke-linejoin="round"/>
<path d="M284.552 94.5889C278.458 92.0749 258.889 90.8179 257.862 90.8179C256.743 90.8179 225.033 88.2069 222.421 87.8339C219.81 87.4609 216.825 93.4299 216.825 93.4299L230.628 93.0569L247.416 96.4149C247.416 96.4149 281.364 108.726 283.976 107.98C284.282 107.893 284.594 107.692 284.899 107.401" fill="url(#paint48_linear_506_583)"/>
<path d="M284.552 94.5889C278.458 92.0749 258.889 90.8179 257.862 90.8179C256.743 90.8179 225.033 88.2069 222.421 87.8339C219.81 87.4609 216.825 93.4299 216.825 93.4299L230.628 93.0569L247.416 96.4149C247.416 96.4149 281.364 108.726 283.976 107.98C284.282 107.893 284.594 107.692 284.899 107.401" stroke="#2D717E" stroke-miterlimit="10" stroke-linecap="round" stroke-linejoin="round"/>
<path d="M213.468 92.683L266.069 87.46L266.442 91.937L220.929 105.74C220.929 105.74 212.722 107.605 206.38 106.486C200.038 105.367 203.022 99.025 204.515 95.294" fill="url(#paint49_linear_506_583)"/>
<path d="M213.468 92.683L266.069 87.46L266.442 91.937L220.929 105.74C220.929 105.74 212.722 107.605 206.38 106.486C200.038 105.367 203.022 99.025 204.515 95.294" stroke="#2D717E" stroke-miterlimit="10" stroke-linecap="round" stroke-linejoin="round"/>
<path d="M266.07 87.4599L276.142 87.0869L279.127 93.0559L266.443 91.9369L266.07 87.4599Z" fill="url(#paint50_linear_506_583)" stroke="#2D717E" stroke-miterlimit="10" stroke-linecap="round" stroke-linejoin="round"/>
<path d="M333.146 175.201L341.741 277.476C341.835 278.124 342.457 278.557 343.083 278.411C343.615 278.286 343.97 277.782 343.914 277.229L338.062 175.201H333.146Z" fill="#2D717E" stroke="#2D717E" stroke-miterlimit="10" stroke-linecap="round" stroke-linejoin="round"/>
<path d="M390.877 175.201L399.501 277.817C399.595 278.465 400.218 278.899 400.845 278.752C401.377 278.627 401.731 278.123 401.675 277.57L395.804 175.202H390.877V175.201Z" fill="#2D717E" stroke="#2D717E" stroke-miterlimit="10" stroke-linecap="round" stroke-linejoin="round"/>
<path d="M152.639 175.201L148.103 276.58C148.054 277.132 148.415 277.641 148.948 277.772C149.577 277.927 150.194 277.502 150.28 276.854L157.546 175.2H152.639V175.201Z" fill="#2D717E" stroke="#2D717E" stroke-miterlimit="10" stroke-linecap="round" stroke-linejoin="round"/>
<path d="M99.4297 175.201L94.9097 276.239C94.8607 276.791 95.2217 277.3 95.7547 277.431C96.3837 277.586 97.0007 277.161 97.0867 276.514L104.328 175.201H99.4297Z" fill="#2D717E" stroke="#2D717E" stroke-miterlimit="10" stroke-linecap="round" stroke-linejoin="round"/>
<path d="M402.107 169.536H96.2217V178.318H402.107V169.536Z" fill="#69BE9A" stroke="#2D717E" stroke-miterlimit="10" stroke-linecap="round" stroke-linejoin="round"/>
<path d="M402.107 169.536H96.2217V172.548H402.107V169.536Z" fill="#2D717E" stroke="#2D717E" stroke-miterlimit="10" stroke-linecap="round" stroke-linejoin="round"/>
<path d="M402.105 169.536H325.568V178.318H402.105V169.536Z" fill="#2D717E" stroke="#2D717E" stroke-miterlimit="10" stroke-linecap="round" stroke-linejoin="round"/>
<path d="M404.833 166.613H93.4956V169.961H404.833V166.613Z" fill="#69BE9A" stroke="#2D717E" stroke-miterlimit="10" stroke-linecap="round" stroke-linejoin="round"/>
<path d="M404.832 166.613H328.758V169.961H404.832V166.613Z" fill="#2D717E" stroke="#2D717E" stroke-miterlimit="10" stroke-linecap="round" stroke-linejoin="round"/>
<path d="M162.846 166.309H204.63C204.952 166.309 205.244 166.118 205.373 165.823L216.942 139.445C217.177 138.909 216.784 138.308 216.199 138.308H174.415C174.093 138.308 173.801 138.498 173.672 138.793L162.103 165.171C161.868 165.708 162.26 166.309 162.846 166.309Z" fill="url(#paint51_linear_506_583)" stroke="#2D717E" stroke-miterlimit="10" stroke-linecap="round" stroke-linejoin="round"/>
<path d="M166.761 164.254H202.414C202.689 164.254 202.937 164.091 203.048 163.84L212.919 141.333C213.12 140.875 212.785 140.363 212.285 140.363H176.632C176.357 140.363 176.109 140.526 175.998 140.777L166.126 163.284C165.927 163.742 166.262 164.254 166.761 164.254Z" fill="#69BE9A" stroke="#2D717E" stroke-miterlimit="10" stroke-linecap="round" stroke-linejoin="round"/>
<path d="M205.211 164.559H142.439V166.613H205.211V164.559Z" fill="url(#paint52_linear_506_583)" stroke="#2D717E" stroke-miterlimit="10" stroke-linecap="round" stroke-linejoin="round"/>
<path d="M205.211 164.559H174.781V166.613H205.211V164.559Z" fill="url(#paint53_linear_506_583)" stroke="#2D717E" stroke-miterlimit="10" stroke-linecap="round" stroke-linejoin="round"/>
<path d="M225.377 150.295H214.306V166.654H225.377V150.295Z" fill="url(#paint54_linear_506_583)" stroke="#2D717E" stroke-miterlimit="10" stroke-linecap="round" stroke-linejoin="round"/>
<path d="M224.88 164.427H223.724C223.219 164.427 222.811 164.019 222.811 163.514C222.811 163.009 223.219 162.601 223.724 162.601H224.88C225.834 162.601 226.611 161.824 226.611 160.87V156.904C226.611 155.95 225.834 155.173 224.88 155.173H223.393C222.888 155.173 222.48 154.764 222.48 154.26C222.48 153.756 222.888 153.347 223.393 153.347H224.88C226.842 153.347 228.437 154.943 228.437 156.904V160.87C228.437 162.832 226.842 164.427 224.88 164.427Z" fill="url(#paint55_linear_506_583)" stroke="#2D717E" stroke-miterlimit="10" stroke-linecap="round" stroke-linejoin="round"/>
<path d="M311.87 166.309H270.086C269.764 166.309 269.472 166.118 269.343 165.823L257.774 139.445C257.539 138.909 257.932 138.308 258.517 138.308H300.301C300.623 138.308 300.915 138.498 301.044 138.793L312.613 165.171C312.848 165.708 312.455 166.309 311.87 166.309Z" fill="url(#paint56_linear_506_583)" stroke="#2D717E" stroke-miterlimit="10" stroke-linecap="round" stroke-linejoin="round"/>
<path d="M269.504 166.613H332.276V164.559H269.504V166.613Z" fill="url(#paint57_linear_506_583)" stroke="#2D717E" stroke-miterlimit="10" stroke-linecap="round" stroke-linejoin="round"/>
<path d="M269.504 166.613H312.786V164.559H269.504V166.613Z" fill="url(#paint58_linear_506_583)" stroke="#2D717E" stroke-miterlimit="10" stroke-linecap="round" stroke-linejoin="round"/>
<path d="M285.89 149.262C286.564 150.484 286.147 152.006 284.96 152.66C283.773 153.314 282.264 152.854 281.59 151.632C280.916 150.41 281.333 148.888 282.52 148.234C283.708 147.58 285.217 148.04 285.89 149.262Z" fill="url(#paint59_linear_506_583)" stroke="#2D717E" stroke-miterlimit="10" stroke-linecap="round" stroke-linejoin="round"/>
<path d="M90.5182 71.6111L93.6002 102.085L107.638 142.613L102.844 145.352L86.4092 108.248L78.1912 76.4051C78.1912 76.4051 77.5062 66.8181 80.9302 65.4481C84.3542 64.0781 89.1482 65.4481 90.5182 71.6111Z" fill="url(#paint60_linear_506_583)" stroke="#2D717E" stroke-miterlimit="10" stroke-linecap="round" stroke-linejoin="round"/>
<path d="M107.638 142.613C107.638 142.613 110.72 149.119 111.062 150.831C111.404 152.543 111.764 156.036 110.418 157.588C108.788 159.469 107.295 158.021 107.295 158.021C107.295 158.021 103.186 156.994 103.186 153.57C103.186 150.146 102.844 145.352 102.844 145.352L107.638 142.613Z" fill="url(#paint61_linear_506_583)" stroke="#2D717E" stroke-miterlimit="10" stroke-linecap="round" stroke-linejoin="round"/>
<path d="M104.273 152.822L110.042 154.327" stroke="#2D717E" stroke-miterlimit="10" stroke-linecap="round" stroke-linejoin="round"/>
<path d="M105.652 148.934L107.295 151.516C107.295 151.516 103.472 158.046 105.526 156.334C107.58 154.622 111.404 152.543 111.061 150.831C110.719 149.119 108.787 145.673 108.787 145.673" fill="url(#paint62_linear_506_583)"/>
<path d="M105.652 148.934L107.295 151.516C107.295 151.516 103.472 158.046 105.526 156.334C107.58 154.622 111.404 152.543 111.061 150.831C110.719 149.119 108.787 145.673 108.787 145.673" stroke="#2D717E" stroke-miterlimit="10" stroke-linecap="round" stroke-linejoin="round"/>
<path d="M74.0994 35.0571C74.0994 35.0571 70.5794 31.266 62.4564 33.703C54.3334 36.14 52.4374 49.137 52.7084 55.636C52.9794 62.135 59.2074 69.4461 57.3114 72.6951C55.4164 75.9441 48.3754 83.526 48.9174 91.649C49.4594 99.772 56.2284 106.271 65.9764 103.292C75.7244 100.313 74.0994 88.399 72.2044 84.067C70.3084 79.735 74.3704 77.8391 75.7244 68.3621C77.0784 58.8851 68.4134 51.032 68.4134 44.263C68.4134 37.493 75.4534 38.5771 75.4534 38.5771L74.0994 35.0571Z" fill="#002B4A" stroke="#2D717E" stroke-miterlimit="10" stroke-linecap="round" stroke-linejoin="round"/>
<path d="M61.9484 60.7461C63.2294 63.3831 64.7144 66.2041 66.1994 69.2401C71.1324 79.3211 67.2714 82.9671 59.7654 88.5431C52.2584 94.1191 53.9744 100.983 55.9044 102.055" stroke="url(#paint63_linear_506_583)" stroke-width="0.5" stroke-miterlimit="10" stroke-linecap="round" stroke-linejoin="round"/>
<path d="M71.5615 37.7109C71.5615 37.7109 61.4805 38.5689 58.9075 45.0029C57.3445 48.9119 58.5505 53.2949 60.8445 58.3939" stroke="url(#paint64_linear_506_583)" stroke-width="0.5" stroke-miterlimit="10" stroke-linecap="round" stroke-linejoin="round"/>
<path d="M64.1973 99.536C64.9093 99.809 65.7213 99.944 66.6273 99.91" stroke="url(#paint65_linear_506_583)" stroke-width="0.5" stroke-miterlimit="10" stroke-linecap="round" stroke-linejoin="round"/>
<path d="M74.1354 37.0671C74.1354 37.0671 64.6984 38.7831 62.5534 45.6461C60.4084 52.5091 73.0624 62.5901 73.7064 70.0971C74.3494 77.6041 65.3414 81.8931 62.1244 87.6841C59.8724 91.7381 60.1424 96.2132 62.4954 98.4592" stroke="url(#paint66_linear_506_583)" stroke-width="0.5" stroke-miterlimit="10" stroke-linecap="round" stroke-linejoin="round"/>
<path d="M98.3656 175.11C98.3656 175.11 96.0326 195.235 93.6986 201.651C91.3656 208.067 86.1156 258.524 85.8236 261.441C85.5316 264.358 93.4066 271.066 96.6146 273.107C99.8226 275.149 98.3646 275.732 94.8646 276.024C91.3646 276.316 87.2816 275.732 85.5316 272.524C83.7816 269.316 79.6986 268.441 79.6986 268.441L79.1156 275.441H77.9486L77.0736 266.691C77.0736 266.691 76.4906 264.066 77.9486 260.858C79.4066 257.65 79.9896 250.942 79.9896 241.9C79.9896 232.859 78.2396 218.276 79.1146 211.276C79.9896 204.276 83.4896 199.026 83.4896 193.193C83.4896 187.36 83.7816 178.61 83.7816 178.61L98.3656 175.11Z" fill="url(#paint67_linear_506_583)" stroke="#2D717E" stroke-miterlimit="10" stroke-linecap="round" stroke-linejoin="round"/>
<path d="M77.0743 266.69C77.0743 266.69 76.6573 264.762 77.4473 262.198C79.2603 265.263 84.4283 269.41 88.4483 271.065C91.4113 272.285 93.8453 272.358 95.3313 272.22C95.8063 272.567 96.2443 272.871 96.6143 273.107C99.8223 275.149 98.3643 275.732 94.8643 276.024C91.3643 276.316 87.2813 275.732 85.5313 272.524C83.7813 269.316 79.6983 268.441 79.6983 268.441L79.1153 275.441H77.9483L77.0743 266.69Z" fill="#2D717E" stroke="#2D717E" stroke-miterlimit="10" stroke-linecap="round" stroke-linejoin="round"/>
<path d="M81.4494 178.318C81.4494 178.318 76.4914 193.193 71.8244 206.025C67.1574 218.858 56.0744 248.315 54.9084 253.565C53.7414 258.815 53.1584 268.44 49.9504 273.398C46.7424 278.356 43.5344 280.689 44.1174 271.94C44.7004 263.19 49.9504 256.774 51.1174 250.066C52.2844 243.358 52.8674 219.15 56.9504 208.359C61.0334 197.568 65.4084 188.818 65.9914 185.61C66.5744 182.402 66.5744 175.985 66.5744 175.985L81.4494 178.318Z" fill="url(#paint68_linear_506_583)" stroke="#2D717E" stroke-miterlimit="10" stroke-linecap="round" stroke-linejoin="round"/>
<path d="M44.6674 268.189C44.8524 270.029 45.2744 271.82 46.1594 272.815C47.8314 274.696 50.5444 271.044 51.9524 268.818C51.4214 270.549 50.7734 272.128 49.9514 273.399C46.7434 278.357 43.5354 280.691 44.1184 271.941C44.2044 270.64 44.4034 269.396 44.6674 268.189Z" fill="#2D717E" stroke="#2D717E" stroke-miterlimit="10" stroke-linecap="round" stroke-linejoin="round"/>
<path d="M79.1162 60.946C79.1162 60.946 77.3662 62.404 76.1992 72.321C75.0322 82.237 82.3242 113.153 82.3242 113.153C82.3242 113.153 69.7832 133.694 66.8662 143.902C63.9492 154.11 62.1982 192.365 62.1982 192.365C62.1982 192.365 68.3232 194.698 80.8642 195.573C93.4052 196.448 100.113 193.24 100.113 193.24C100.113 193.24 100.698 138.652 100.698 130.194C100.698 121.736 101.281 102.653 102.156 100.319C103.031 97.986 105.656 91.861 105.656 89.528C105.656 87.195 88.1572 62.404 88.1572 62.404L79.1162 60.946Z" fill="url(#paint69_linear_506_583)" stroke="#2D717E" stroke-miterlimit="10" stroke-linecap="round" stroke-linejoin="round"/>
<path d="M66.8662 143.902C69.1642 135.859 78.6822 114.622 82.0882 110.958C87.2582 112.681 96.6812 114.381 100.89 113.126C100.767 116.156 100.699 127.324 100.699 130.194C100.699 138.652 100.114 193.24 100.114 193.24C100.114 193.24 93.4062 196.448 80.8652 195.573C68.3242 194.698 62.1992 192.365 62.1992 192.365C62.1992 192.365 63.9502 154.11 66.8662 143.902Z" fill="url(#paint70_linear_506_583)" stroke="#2D717E" stroke-miterlimit="10" stroke-linecap="round" stroke-linejoin="round"/>
<path d="M85.6113 26.564C85.6113 26.564 88.7483 19.738 94.9383 19.738C101.128 19.738 103.879 25.24 102.503 30.054C101.127 34.868 106.629 33.493 107.317 36.588C108.005 39.683 102.847 41.746 100.096 41.746C97.3453 41.746 85.6113 26.564 85.6113 26.564Z" fill="#002B4A" stroke="#2D717E" stroke-miterlimit="10" stroke-linecap="round" stroke-linejoin="round"/>
<path d="M94.6562 25.864C96.4993 24.835 98.6562 24.141 99.6582 25.699C101.588 28.702 95.5832 31.061 97.5132 34.278C99.4432 37.495 104.162 36.637 103.947 37.71C103.733 38.782 100.73 39.426 100.73 39.426" stroke="url(#paint71_linear_506_583)" stroke-width="0.5" stroke-miterlimit="10" stroke-linecap="round" stroke-linejoin="round"/>
<path d="M91.5083 28.0591C91.5083 28.0591 92.0983 27.5501 92.9723 26.9331" stroke="url(#paint72_linear_506_583)" stroke-width="0.5" stroke-miterlimit="10" stroke-linecap="round" stroke-linejoin="round"/>
<path d="M101.483 42.436C101.105 42.209 100.763 41.744 100.461 41.173C99.9655 37.483 98.8905 33.852 96.8455 31.807C93.1445 28.106 88.3045 26.934 85.6115 26.563C84.3665 26.392 83.0965 26.48 81.9105 26.897C76.5985 28.763 72.0335 32.432 73.0165 41.284C74.0995 51.032 81.6815 53.469 81.6815 53.469L82.2225 59.426L89.8045 62.946L90.0755 56.447C90.0755 56.447 95.2205 58.613 97.1155 58.342C99.0115 58.071 99.5525 55.634 100.364 52.114C100.599 51.094 100.777 49.33 100.808 47.244C101.25 46.802 102.157 45.895 103.072 44.98C104.346 43.709 103.074 43.391 101.483 42.436Z" fill="url(#paint73_linear_506_583)" stroke="#2D717E" stroke-miterlimit="10" stroke-linecap="round" stroke-linejoin="round"/>
<path d="M73.0162 41.2849C72.0322 32.4329 76.5982 28.764 81.9102 26.898C83.0962 26.481 84.3662 26.392 85.6112 26.564C87.5942 26.837 90.7402 27.554 93.7392 29.385C92.2162 29.075 94.8012 33.538 92.4292 36.418C88.6382 41.021 84.6602 42.639 84.6602 42.639C84.6602 42.639 81.9522 40.4729 81.1402 43.4509C80.3282 46.4299 80.5982 48.596 82.7652 49.137C84.9312 49.679 85.7442 49.137 85.7442 49.137C85.7442 49.137 84.3072 52.547 81.7272 53.96L81.6822 53.469C81.6822 53.469 74.0992 51.0329 73.0162 41.2849Z" fill="#002B4A" stroke="#2D717E" stroke-miterlimit="10" stroke-linecap="round" stroke-linejoin="round"/>
<path d="M93.6992 61.2371L92.2412 69.1121L76.7832 60.9461L78.2412 53.6541L93.6992 61.2371Z" fill="url(#paint74_linear_506_583)" stroke="#2D717E" stroke-miterlimit="10" stroke-linecap="round" stroke-linejoin="round"/>
<path d="M86.2275 127.67C86.2275 127.67 89.8205 128.403 91.0865 128.329C92.3525 128.255 94.1215 126.819 95.3655 127.434C96.6095 128.049 98.4375 131.898 98.4375 131.898C98.4375 131.898 100.132 132.757 99.6445 133.66C99.1565 134.563 97.0605 135.414 97.0605 135.414C97.0605 135.414 95.0465 137.302 93.8915 137.494C92.7365 137.686 85.6675 132.519 85.6675 132.519L86.2275 127.67Z" fill="url(#paint75_linear_506_583)" stroke="#2D717E" stroke-miterlimit="10" stroke-linecap="round" stroke-linejoin="round"/>
<path d="M86.9753 131.413C87.9733 130.211 87.6113 128.396 86.2283 127.67L66.7923 109.468L87.9563 76.5771C90.0713 72.9451 88.8053 68.2571 85.2083 66.1721C81.5763 64.0571 76.9183 65.2871 74.8033 68.9201L56.4603 105.372C54.4793 107.304 54.4163 110.461 56.3003 112.471C56.3243 112.496 56.3473 112.522 56.3723 112.546C58.2113 115.379 78.4523 130.236 84.3213 132.177C85.2803 132.494 86.3303 132.189 86.9753 131.413Z" fill="url(#paint76_linear_506_583)" stroke="#2D717E" stroke-miterlimit="10" stroke-linecap="round" stroke-linejoin="round"/>
<path d="M163.853 81.0479C163.853 81.0479 166.362 88.8249 166.362 90.3299C166.362 91.8349 166.111 93.5909 166.111 93.5909L168.33 97.0199C168.625 97.4759 168.481 98.0849 168.013 98.3599L164.606 100.364C164.606 100.364 164.104 108.392 163.603 109.395C163.101 110.398 154.572 110.148 154.572 110.148L151.812 115.416L137.513 109.897L141.276 99.612L140.523 84.058C140.523 84.058 149.303 76.2809 163.853 81.0479Z" fill="url(#paint77_linear_506_583)" stroke="#2D717E" stroke-miterlimit="10" stroke-linecap="round" stroke-linejoin="round"/>
<path d="M154.066 99.9469C154.066 99.9469 151.573 102.284 149.703 102.44C147.833 102.596 141.756 101.193 141.288 100.57C140.82 99.9469 136.613 91.2199 136.769 87.0129C136.925 82.8059 137.081 76.5729 141.6 74.5469C146.119 72.5209 153.287 73.1449 157.027 70.8069C160.767 68.4699 166.688 66.5999 169.805 70.6509C172.922 74.7019 170.584 80.3119 168.091 82.6499C165.598 84.9869 162.481 85.6109 162.793 86.7009C163.105 87.7919 164.975 88.8829 163.884 90.4409C162.793 91.9989 158.898 93.4019 158.898 94.0249C158.898 94.6479 159.833 96.8299 158.742 97.1419C157.651 97.4539 156.561 94.9599 155.47 94.9599C154.379 94.9599 152.04 97.9209 154.066 99.9469Z" fill="#002B4A" stroke="#2D717E" stroke-miterlimit="10" stroke-linecap="round" stroke-linejoin="round"/>
<path d="M147.559 92.7909C147.1 93.3099 146.714 93.8629 146.417 94.4569" stroke="url(#paint78_linear_506_583)" stroke-width="0.5" stroke-miterlimit="10" stroke-linecap="round" stroke-linejoin="round"/>
<path d="M168.033 76.6409C168.033 76.6409 167.795 81.8669 162.332 84.7179C158.36 86.7899 153.008 88.4859 149.468 91.0819" stroke="url(#paint79_linear_506_583)" stroke-width="0.5" stroke-miterlimit="10" stroke-linecap="round" stroke-linejoin="round"/>
<path d="M162.793 86.7019C162.793 86.7019 159.244 89.7069 155.444 92.7949C151.643 95.8829 146.892 97.5459 146.892 97.5459" stroke="url(#paint80_linear_506_583)" stroke-width="0.5" stroke-miterlimit="10" stroke-linecap="round" stroke-linejoin="round"/>
<path d="M153.818 100.364L155.825 100.866C155.825 100.866 155.323 103.876 157.33 106.134" fill="url(#paint81_linear_506_583)"/>
<path d="M153.818 100.364L155.825 100.866C155.825 100.866 155.323 103.876 157.33 106.134" stroke="#2D717E" stroke-miterlimit="10" stroke-linecap="round" stroke-linejoin="round"/>
<path d="M156.133 94.9909L170.26 91.4949" stroke="#2D717E" stroke-miterlimit="10" stroke-linecap="round" stroke-linejoin="round"/>
<path d="M166.625 91.2148L169.842 91.3548C169.842 91.3548 170.961 94.9908 167.604 95.4108" stroke="#2D717E" stroke-miterlimit="10" stroke-linecap="round" stroke-linejoin="round"/>
<path d="M152.386 264.097C152.386 264.097 165.397 272.314 167.68 272.314C169.963 272.314 171.104 274.368 169.963 274.597C168.822 274.825 161.746 275.054 156.952 275.282C152.159 275.51 148.963 275.054 146.224 275.054C143.485 275.054 140.289 275.282 138.92 274.597C137.55 273.912 139.833 266.151 139.833 264.782C139.833 263.413 150.788 263.184 152.386 264.097Z" fill="#2D717E" stroke="#2D717E" stroke-miterlimit="10" stroke-linecap="round" stroke-linejoin="round"/>
<path d="M169.175 272.647C164.121 274.313 155.933 273.218 151.017 272.771C147.129 272.418 141.068 272.338 138.522 272.32C138.421 273.491 138.494 274.385 138.919 274.597C140.289 275.282 143.484 275.054 146.223 275.054C148.962 275.054 152.158 275.511 156.951 275.282C161.745 275.054 168.821 274.825 169.962 274.597C170.815 274.427 170.393 273.239 169.175 272.647Z" fill="url(#paint82_linear_506_583)" stroke="#2D717E" stroke-miterlimit="10" stroke-linecap="round" stroke-linejoin="round"/>
<path d="M162.658 207.701L152.397 259.149L154.536 264.495C154.536 264.495 152.387 267.962 148.05 268.875C143.713 269.788 139.148 269.788 139.148 269.788C139.148 269.788 138.007 264.081 138.692 263.397C139.377 262.712 139.605 259.973 139.605 259.973L145.54 208.157L162.658 207.701Z" fill="#69BE9A" stroke="#2D717E" stroke-miterlimit="10" stroke-linecap="round" stroke-linejoin="round"/>
<path d="M193.93 262.359C193.93 262.359 201.919 268.979 205.571 270.12C209.223 271.261 213.104 272.403 213.104 273.544C213.104 274.685 204.43 275.827 197.81 275.142C191.19 274.457 181.147 271.49 178.864 271.49C176.581 271.49 177.038 265.555 177.038 264.642C177.039 263.729 188.223 256.424 193.93 262.359Z" fill="#2D717E" stroke="#2D717E" stroke-miterlimit="10" stroke-linecap="round" stroke-linejoin="round"/>
<path d="M213.105 273.544C213.105 273.133 212.598 272.723 211.785 272.312C206.853 273.045 199.853 273.281 192.105 272.174C185.535 271.235 180.038 269.975 177.229 269.275C177.466 270.502 177.937 271.489 178.866 271.489C181.149 271.489 191.192 274.456 197.812 275.141C204.431 275.827 213.105 274.685 213.105 273.544Z" fill="url(#paint83_linear_506_583)" stroke="#2D717E" stroke-miterlimit="10" stroke-linecap="round" stroke-linejoin="round"/>
<path d="M154.212 184.646C154.212 184.646 163.114 183.733 174.756 185.102C186.397 186.472 212.401 188.069 212.857 191.037C213.313 194.004 192.673 255.768 192.673 257.366C192.673 258.964 194.499 260.562 194.956 261.475C195.412 262.388 195.412 263.529 195.412 263.529C195.412 263.529 189.821 269.559 185.484 271.157C181.147 272.755 177.502 271.266 176.589 271.266C175.676 271.266 175.676 265.103 176.361 262.135C177.046 259.168 178.187 251.635 178.415 250.95C178.643 250.265 191.172 206.33 191.172 206.33C191.172 206.33 157.179 211.808 136.864 209.526C116.549 207.243 114.494 204.048 113.353 199.254C112.212 194.46 114.494 184.873 114.494 184.873L154.212 184.646Z" fill="#69BE9A" stroke="#2D717E" stroke-miterlimit="10" stroke-linecap="round" stroke-linejoin="round"/>
<path d="M151.644 199.432C151.13 200.159 150.613 200.801 150.104 201.309" stroke="#2D717E" stroke-miterlimit="10" stroke-linecap="round" stroke-linejoin="round"/>
<path d="M157.864 187.157C157.864 187.157 155.819 192.384 153.331 196.745" stroke="#2D717E" stroke-miterlimit="10" stroke-linecap="round" stroke-linejoin="round"/>
<path d="M155.125 189.439C155.125 189.439 151.473 196.287 143.255 199.483" stroke="#2D717E" stroke-miterlimit="10" stroke-linecap="round" stroke-linejoin="round"/>
<path d="M206.967 202.01C207.742 201.713 208.493 201.403 209.205 201.081Z" fill="url(#paint84_linear_506_583)"/>
<path d="M206.967 202.01C207.742 201.713 208.493 201.403 209.205 201.081" stroke="#2D717E" stroke-miterlimit="10" stroke-linecap="round" stroke-linejoin="round"/>
<path d="M191.172 206.331C191.172 206.331 197.825 205.084 204.11 203.021Z" fill="url(#paint85_linear_506_583)"/>
<path d="M191.172 206.331C191.172 206.331 197.825 205.084 204.11 203.021" stroke="#2D717E" stroke-miterlimit="10" stroke-linecap="round" stroke-linejoin="round"/>
<path d="M217.537 130.517C218.015 128.607 218.811 128.766 218.174 128.129C217.295 127.25 216.582 128.288 214.035 129.721C211.488 131.154 208.941 132.905 208.941 132.905C208.941 132.905 208.941 132.268 209.578 131.472C210.215 130.676 210.533 128.925 210.533 127.97C210.533 127.015 209.737 127.174 209.419 128.129C209.101 129.084 206.235 130.835 206.076 131.631C205.917 132.427 205.344 135.569 205.344 135.569C204.431 136.939 204.431 143.33 204.431 143.33L185.942 157.254L176.583 168.211C176.583 168.211 180.692 174.831 182.974 173.918C185.257 173.005 186.398 172.092 191.876 167.527C196.52 163.657 208.145 145.801 208.145 145.801C208.145 145.801 212.602 142.936 213.876 141.502C215.773 139.367 217.348 135.95 217.338 133.107C217.334 132.29 217.311 131.422 217.537 130.517Z" fill="url(#paint86_linear_506_583)" stroke="#2D717E" stroke-miterlimit="10" stroke-linecap="round" stroke-linejoin="round"/>
<path d="M131.791 109.406C131.791 109.406 133.551 102.806 141.031 104.126C148.511 105.446 154.231 111.606 155.551 113.806C156.871 116.006 131.351 112.926 131.351 112.926L131.791 109.406Z" fill="url(#paint87_linear_506_583)" stroke="#2D717E" stroke-miterlimit="10" stroke-linecap="round" stroke-linejoin="round"/>
<path d="M174.912 167.046C174.912 167.046 173.177 168.919 174.912 171.886C176.109 173.933 178.206 175.506 182.224 174.807C185.989 174.152 191.632 164.846 191.632 158.246C191.632 151.646 186.792 151.206 185.032 152.526C183.272 153.846 174.912 167.046 174.912 167.046Z" fill="url(#paint88_linear_506_583)" stroke="#2D717E" stroke-miterlimit="10" stroke-linecap="round" stroke-linejoin="round"/>
<path d="M135.038 108.634C135.038 108.634 117.233 117.08 114.723 118.678C112.212 120.276 110.614 140.135 110.614 143.559C110.614 146.983 113.125 180.538 113.81 186.244C114.495 191.951 136.408 195.831 143.712 193.777C151.016 191.723 158.093 186.473 158.093 184.647C158.093 182.821 157.408 167.299 157.865 164.332C158.322 161.365 162.43 148.81 162.43 148.81L174.886 168.693C174.886 168.693 176.196 171.133 180.826 169.217C187.446 166.478 187.995 155.886 187.995 155.886C187.995 155.886 180.691 143.103 178.636 136.712C176.582 130.321 175.669 125.527 174.756 124.386C173.843 123.245 153.299 113.658 149.647 111.147C145.995 108.634 141.43 106.808 135.038 108.634Z" fill="url(#paint89_linear_506_583)" stroke="#2D717E" stroke-miterlimit="10" stroke-linecap="round" stroke-linejoin="round"/>
<path d="M162.43 148.809L156.495 140.135" stroke="#2D717E" stroke-miterlimit="10" stroke-linecap="round" stroke-linejoin="round"/>
<path d="M161.463 147.572L151.017 142.417" stroke="#2D717E" stroke-miterlimit="10" stroke-linecap="round" stroke-linejoin="round"/>
<path d="M130.493 213.017L139.611 277.838C139.701 278.475 140.319 278.898 140.945 278.749C141.476 278.623 141.833 278.124 141.781 277.581L135.355 211.95L130.493 213.017Z" fill="#2D717E" stroke="#2D717E" stroke-miterlimit="10" stroke-linecap="round" stroke-linejoin="round"/>
<path d="M104.299 213.547L89.0563 277.207C88.9063 277.833 89.3273 278.452 89.9643 278.543C90.5043 278.62 91.0193 278.287 91.1693 277.762L108.863 215.981L104.299 213.547Z" fill="#2D717E" stroke="#2D717E" stroke-miterlimit="10" stroke-linecap="round" stroke-linejoin="round"/>
<path d="M131.977 212.76L122.274 277.496C122.179 278.133 122.651 278.713 123.294 278.749C123.839 278.779 124.323 278.403 124.427 277.867L136.735 214.792L131.977 212.76Z" fill="#2D717E" stroke="#2D717E" stroke-miterlimit="10" stroke-linecap="round" stroke-linejoin="round"/>
<path d="M166.316 213.017L175.434 277.838C175.524 278.475 176.142 278.898 176.768 278.749C177.299 278.623 177.656 278.124 177.604 277.581L171.178 211.95L166.316 213.017Z" fill="#2D717E" stroke="#2D717E" stroke-miterlimit="10" stroke-linecap="round" stroke-linejoin="round"/>
<path d="M89.8614 145.771L100.964 217.938H179.905C179.905 217.938 181.077 197.144 177.594 189.792C174.111 182.44 131.147 198.203 129.599 197.816C128.444 197.527 130.141 160.264 132.254 145.704C132.886 141.348 129.506 137.449 125.104 137.449H97.0004C92.5744 137.449 89.1884 141.395 89.8614 145.771Z" fill="#69BE9A" stroke="#2D717E" stroke-miterlimit="10" stroke-linecap="round" stroke-linejoin="round"/>
<path d="M177.595 189.792C174.112 182.44 131.148 198.203 129.6 197.816C128.445 197.527 130.142 160.264 132.255 145.704C132.874 141.437 129.641 137.619 125.372 137.464C121.077 137.619 117.838 141.484 118.498 145.771L129.601 217.938H179.907C179.905 217.938 181.077 197.144 177.595 189.792Z" fill="#2D717E" stroke="#2D717E" stroke-miterlimit="10" stroke-linecap="round" stroke-linejoin="round"/>
<path d="M217.538 130.517C217.538 130.517 216.264 131.791 214.354 134.019Z" fill="url(#paint90_linear_506_583)"/>
<path d="M217.538 130.517C217.538 130.517 216.264 131.791 214.354 134.019" stroke="#2D717E" stroke-miterlimit="10" stroke-linecap="round" stroke-linejoin="round"/>
<path d="M217.337 133.106C217.337 133.106 215.785 136.248 214.83 137.681Z" fill="url(#paint91_linear_506_583)"/>
<path d="M217.337 133.106C217.337 133.106 215.785 136.248 214.83 137.681" stroke="#2D717E" stroke-miterlimit="10" stroke-linecap="round" stroke-linejoin="round"/>
<path d="M3.5036 169.581C5.1626 170.306 9.21959 170.214 9.22359 170.214C9.26559 170.213 8.3516 167.558 8.2746 167.397C7.3836 165.535 4.5686 162.46 2.2776 162.769C0.627596 162.992 -0.290404 164.644 0.082596 166.197C0.462596 167.785 2.0906 168.964 3.5036 169.581Z" fill="#2D717E"/>
<path d="M56.6556 155.77C54.3576 155.523 51.6266 158.672 50.7866 160.558C50.7146 160.721 49.8716 163.4 49.9146 163.4C49.9146 163.4 49.9536 163.399 49.9636 163.399C49.5286 163.893 49.0676 164.428 48.5766 165.022C47.6776 166.127 46.6716 167.383 45.6696 168.824C44.6636 170.261 43.6116 171.852 42.6556 173.626C41.6936 175.404 40.7736 177.323 40.0806 179.423C40.0726 179.447 40.0676 179.472 40.0596 179.496C40.0716 178.819 40.0416 176.924 40.0226 176.779C39.7576 174.732 38.0416 170.932 35.7686 170.512C34.1306 170.21 32.7436 171.492 32.6136 173.085C32.4806 174.711 33.6596 176.339 34.8096 177.367C36.1066 178.525 39.7056 179.647 39.9926 179.735C39.3506 181.741 38.8556 183.852 38.4716 186.015C38.2506 187.252 38.0666 188.504 37.8986 189.762C37.8896 189.176 37.8776 188.653 37.8686 188.579C37.6026 186.532 35.8876 182.732 33.6136 182.312C31.9756 182.009 30.5886 183.292 30.4586 184.885C30.3256 186.512 31.5046 188.139 32.6546 189.167C33.8216 190.209 36.8706 191.227 37.6816 191.486C37.6226 191.969 37.5576 192.451 37.4996 192.935C37.2226 195.255 36.9556 197.571 36.6246 199.835C36.5086 200.633 36.3646 201.414 36.2236 202.197C36.2156 201.677 36.2036 201.239 36.1956 201.172C35.9306 199.125 34.2146 195.325 31.9406 194.905C30.3026 194.602 28.9156 195.885 28.7856 197.478C28.6526 199.104 29.8316 200.732 30.9816 201.759C32.0946 202.754 34.9016 203.719 35.8636 204.03C35.6946 204.827 35.5276 205.625 35.3276 206.39C35.1796 206.909 35.0736 207.419 34.8956 207.932C34.7306 208.444 34.5666 208.95 34.4046 209.452C34.0576 210.406 33.7046 211.393 33.3426 212.316C33.0956 212.96 32.8486 213.568 32.6006 214.182C32.7256 213.389 32.9376 211.832 32.9406 211.7C32.9726 210.329 32.4856 208.1 31.5166 206.533C31.5226 206.331 31.5106 206.128 31.4786 205.928C31.2246 204.35 29.7426 203.179 28.1336 203.607C25.8996 204.202 24.4826 208.123 24.3766 210.184C24.3706 210.306 24.4496 211.633 24.5136 212.469C24.4016 211.983 24.2976 211.51 24.1756 211.011C23.9416 210.023 23.6786 209.044 23.3996 207.989C23.2476 207.485 23.0926 206.975 22.9376 206.461C22.7946 205.947 22.5776 205.423 22.3976 204.898C21.9556 203.69 21.4496 202.487 20.9126 201.287C21.7776 201.08 24.8376 200.3 26.0656 199.357C27.2886 198.419 28.5866 196.883 28.5746 195.251C28.5636 193.653 27.2756 192.27 25.6196 192.45C23.3216 192.7 21.3266 196.361 20.9096 198.383C20.8836 198.509 20.7476 199.993 20.6886 200.81C20.3596 200.091 20.0356 199.372 19.6796 198.655C18.6526 196.586 17.5486 194.524 16.4556 192.462C16.1206 191.83 15.7946 191.198 15.4656 190.565C15.7746 190.495 19.4316 189.646 20.8076 188.59C22.0306 187.651 23.3286 186.116 23.3166 184.484C23.3056 182.886 22.0176 181.503 20.3626 181.683C18.0646 181.933 16.0696 185.594 15.6526 187.615C15.6216 187.767 15.4286 189.903 15.4056 190.449C14.6816 189.056 13.9736 187.66 13.3306 186.256C12.4416 184.32 11.6756 182.372 11.0746 180.429C11.2186 180.396 15.0396 179.528 16.4486 178.447C17.6716 177.509 18.9696 175.973 18.9576 174.341C18.9466 172.743 17.6586 171.36 16.0026 171.54C13.7046 171.79 11.7096 175.451 11.2926 177.472C11.2596 177.631 11.0536 179.929 11.0456 180.348C11.0096 180.232 10.9606 180.116 10.9266 180.001C10.3106 177.919 9.97456 175.825 9.75656 173.849C9.62756 172.701 9.56856 171.596 9.53556 170.52C10.2636 170.431 13.5876 169.989 14.9636 169.156C16.2826 168.357 17.7406 166.974 17.9086 165.35C18.0726 163.761 16.9446 162.245 15.2796 162.242C12.9676 162.238 10.5836 165.658 9.94656 167.621C9.91156 167.728 9.68056 168.852 9.52256 169.674C9.51556 169.188 9.49856 168.687 9.50056 168.221C9.50356 166.473 9.61456 164.872 9.72356 163.456C9.79256 162.651 9.87056 161.924 9.95056 161.245C10.6196 160.785 13.2936 158.898 14.1156 157.549C14.9176 156.233 15.5746 154.333 14.9756 152.815C14.3886 151.329 12.6886 150.503 11.2096 151.268C9.15556 152.329 8.61556 156.463 8.95556 158.5C8.98556 158.676 9.76056 161.375 9.79556 161.351C9.79556 161.351 9.82856 161.329 9.83556 161.323C9.74556 161.975 9.65556 162.675 9.57356 163.442C9.43256 164.859 9.28756 166.462 9.24656 168.217C9.20056 169.97 9.20056 171.877 9.38156 173.885C9.56056 175.898 9.85056 178.007 10.4316 180.14C10.4386 180.164 10.4486 180.188 10.4546 180.212C10.0916 179.641 9.02056 178.077 8.92456 177.967C7.57356 176.406 4.04656 174.183 1.91856 175.087C0.385556 175.738 -0.0634417 177.573 0.706558 178.974C1.49256 180.404 3.37456 181.111 4.90056 181.333C6.62156 181.584 10.2426 180.534 10.5306 180.449C11.1016 182.476 11.8536 184.51 12.7266 186.526C13.2246 187.679 13.7626 188.825 14.3156 189.968C13.9856 189.484 13.6866 189.054 13.6376 188.998C12.2866 187.437 8.75956 185.215 6.63156 186.118C5.09856 186.769 4.64956 188.604 5.41956 190.005C6.20556 191.435 8.08756 192.142 9.61356 192.365C11.1616 192.59 14.2666 191.757 15.0856 191.526C15.3026 191.962 15.5146 192.4 15.7326 192.835C16.7816 194.923 17.8366 197.002 18.8096 199.073C19.1526 199.803 19.4636 200.534 19.7776 201.264C19.4836 200.834 19.2326 200.475 19.1886 200.424C17.8386 198.863 14.3106 196.64 12.1826 197.544C10.6496 198.195 10.2006 200.03 10.9706 201.431C11.7566 202.861 13.6386 203.568 15.1646 203.79C16.6426 204.005 19.5146 203.262 20.4896 202.992C20.7886 203.75 21.0896 204.508 21.3446 205.256C21.5076 205.771 21.7006 206.255 21.8346 206.78C21.9796 207.298 22.1226 207.81 22.2636 208.318C22.5006 209.306 22.7506 210.324 22.9576 211.293C23.1066 211.966 23.2366 212.61 23.3686 213.259C23.0356 212.529 22.3536 211.113 22.2826 211.001C21.1846 209.253 18.0346 206.522 15.7936 207.093C14.1796 207.504 13.4576 209.25 14.0066 210.751C14.5666 212.284 16.3196 213.268 17.7946 213.719C19.4176 214.215 23.0126 213.762 23.4606 213.702C23.6756 214.776 23.8756 215.822 24.0476 216.813C24.6526 220.246 25.0266 223.128 25.2596 225.145C25.3006 225.503 25.3356 225.823 25.3686 226.125H18.4116L20.9516 275.693H32.8066L35.3466 226.125H28.8646C28.9126 226.025 28.9576 225.932 29.0086 225.828C29.8986 223.975 31.1316 221.312 32.4636 218.054C32.8866 217.025 33.3186 215.918 33.7516 214.777C34.1866 214.868 37.7446 215.591 39.4026 215.216C40.9066 214.876 42.7276 214.025 43.4006 212.539C44.0596 211.083 43.4696 209.288 41.8906 208.758C39.6996 208.022 36.3546 210.511 35.1286 212.172C35.0566 212.27 34.3906 213.421 33.9826 214.154C34.1566 213.687 34.3316 213.235 34.5046 212.752C34.8546 211.799 35.1756 210.837 35.5246 209.804C35.6756 209.299 35.8286 208.789 35.9826 208.274C36.1466 207.767 36.2546 207.21 36.3946 206.673C36.6926 205.422 36.9336 204.139 37.1476 202.842C37.9836 203.146 40.9656 204.184 42.5106 204.075C44.0486 203.967 45.9776 203.402 46.8686 202.034C47.7406 200.695 47.4296 198.831 45.9496 198.068C43.8946 197.008 40.2116 198.962 38.7486 200.418C38.6576 200.509 37.7246 201.672 37.2246 202.32C37.3476 201.539 37.4736 200.76 37.5726 199.966C37.8576 197.674 38.0736 195.345 38.3006 193.023C38.3696 192.311 38.4466 191.604 38.5216 190.894C38.8176 191.006 42.3366 192.315 44.0666 192.194C45.6046 192.086 47.5336 191.521 48.4246 190.153C49.2966 188.814 48.9856 186.95 47.5056 186.187C45.4516 185.127 41.7676 187.081 40.3046 188.537C40.1946 188.647 38.8556 190.322 38.5356 190.765C38.7006 189.204 38.8796 187.649 39.1186 186.124C39.4446 184.019 39.8816 181.971 40.4506 180.019C40.5886 180.071 44.2546 181.455 46.0266 181.33C47.5646 181.222 49.4936 180.657 50.3846 179.289C51.2566 177.95 50.9456 176.087 49.4656 175.323C47.4106 174.263 43.7276 176.217 42.2646 177.673C42.1496 177.787 40.7096 179.59 40.4716 179.936C40.5056 179.82 40.5286 179.696 40.5636 179.581C41.1986 177.505 42.0736 175.573 42.9826 173.804C43.5086 172.775 44.0686 171.821 44.6346 170.906C45.2906 171.234 48.3076 172.698 49.9146 172.762C51.4556 172.823 53.4346 172.474 54.4696 171.213C55.4836 169.978 55.3786 168.091 53.9916 167.17C52.0656 165.891 48.1906 167.428 46.5766 168.715C46.4886 168.785 45.6756 169.595 45.0906 170.194C45.3526 169.785 45.6146 169.357 45.8736 168.97C46.8406 167.514 47.8156 166.24 48.6886 165.118C49.1906 164.484 49.6566 163.921 50.0976 163.399C50.9096 163.385 54.1806 163.285 55.6106 162.614C57.0066 161.959 58.6016 160.736 58.9396 159.139C59.2736 157.574 58.3116 155.948 56.6556 155.77ZM31.2076 217.522C29.8186 220.719 28.5406 223.329 27.6216 225.14C27.4366 225.505 27.2696 225.828 27.1156 226.126H26.9616C26.9166 225.772 26.8656 225.386 26.8066 224.952C26.5266 222.916 26.0856 220.015 25.3996 216.562C25.1856 215.471 24.9346 214.309 24.6656 213.118C24.9356 213.011 26.4686 212.39 27.8266 211.632C29.0096 212.913 32.0416 214.413 32.4346 214.604C32.0216 215.617 31.6106 216.6 31.2076 217.522Z" fill="#2D717E"/>
<path d="M44.5444 170.474C44.5804 170.496 45.2824 167.777 45.3074 167.601C45.5924 165.557 44.9404 161.439 42.8584 160.433C41.3594 159.709 39.6824 160.58 39.1364 162.081C38.5784 163.615 39.2864 165.496 40.1234 166.791C41.1074 168.31 44.5424 170.472 44.5444 170.474Z" fill="#2D717E"/>
<path d="M421.075 275.622H14.3237V280.606H421.075V275.622Z" fill="#2D717E"/>
</g>
<defs>
<filter id="filter0_d_506_583" x="-4" y="0" width="429.075" height="288.606" filterUnits="userSpaceOnUse" color-interpolation-filters="sRGB">
<feFlood flood-opacity="0" result="BackgroundImageFix"/>
<feColorMatrix in="SourceAlpha" type="matrix" values="0 0 0 0 0 0 0 0 0 0 0 0 0 0 0 0 0 0 127 0" result="hardAlpha"/>
<feOffset dy="4"/>
<feGaussianBlur stdDeviation="2"/>
<feComposite in2="hardAlpha" operator="out"/>
<feColorMatrix type="matrix" values="0 0 0 0 0 0 0 0 0 0 0 0 0 0 0 0 0 0 0.25 0"/>
<feBlend mode="normal" in2="BackgroundImageFix" result="effect1_dropShadow_506_583"/>
<feBlend mode="normal" in="SourceGraphic" in2="effect1_dropShadow_506_583" result="shape"/>
</filter>
<linearGradient id="paint0_linear_506_583" x1="371.109" y1="71.751" x2="371.109" y2="276.668" gradientUnits="userSpaceOnUse">
<stop stop-color="#ABFFDB"/>
<stop offset="1" stop-color="#AFFFBA"/>
</linearGradient>
<linearGradient id="paint1_linear_506_583" x1="371.109" y1="79.177" x2="371.109" y2="116.2" gradientUnits="userSpaceOnUse">
<stop stop-color="#ABFFDB"/>
<stop offset="1" stop-color="#AFFFBA"/>
</linearGradient>
<linearGradient id="paint2_linear_506_583" x1="371.109" y1="127.665" x2="371.109" y2="164.687" gradientUnits="userSpaceOnUse">
<stop stop-color="#ABFFDB"/>
<stop offset="1" stop-color="#AFFFBA"/>
</linearGradient>
<linearGradient id="paint3_linear_506_583" x1="371.109" y1="176.151" x2="371.109" y2="213.174" gradientUnits="userSpaceOnUse">
<stop stop-color="#ABFFDB"/>
<stop offset="1" stop-color="#AFFFBA"/>
</linearGradient>
<linearGradient id="paint4_linear_506_583" x1="371.109" y1="224.638" x2="371.109" y2="261.66" gradientUnits="userSpaceOnUse">
<stop stop-color="#ABFFDB"/>
<stop offset="1" stop-color="#AFFFBA"/>
</linearGradient>
<linearGradient id="paint5_linear_506_583" x1="206.304" y1="0" x2="206.304" y2="108.208" gradientUnits="userSpaceOnUse">
<stop stop-color="#ABFFDB"/>
<stop offset="1" stop-color="#AFFFBA"/>
</linearGradient>
<linearGradient id="paint6_linear_506_583" x1="346.195" y1="137.314" x2="346.195" y2="209.096" gradientUnits="userSpaceOnUse">
<stop stop-color="#ABFFDB"/>
<stop offset="1" stop-color="#AFFFBA"/>
</linearGradient>
<linearGradient id="paint7_linear_506_583" x1="349.404" y1="167.621" x2="349.404" y2="203.847" gradientUnits="userSpaceOnUse">
<stop stop-color="#ABFFDB"/>
<stop offset="1" stop-color="#AFFFBA"/>
</linearGradient>
<linearGradient id="paint8_linear_506_583" x1="339.862" y1="209.095" x2="339.862" y2="203.036" gradientUnits="userSpaceOnUse">
<stop stop-color="#ABFFDB"/>
<stop offset="1" stop-color="#AFFFBA"/>
</linearGradient>
<linearGradient id="paint9_linear_506_583" x1="314.458" y1="250.457" x2="314.458" y2="276.217" gradientUnits="userSpaceOnUse">
<stop stop-color="#F9CFAF"/>
<stop offset="1" stop-color="#FEE4C9"/>
</linearGradient>
<linearGradient id="paint10_linear_506_583" x1="301.53" y1="186.272" x2="301.53" y2="254.786" gradientUnits="userSpaceOnUse">
<stop stop-color="#00434C"/>
<stop offset="1" stop-color="#00434C"/>
</linearGradient>
<linearGradient id="paint11_linear_506_583" x1="277.228" y1="116.498" x2="277.228" y2="126.475" gradientUnits="userSpaceOnUse">
<stop stop-color="#FEE4C9"/>
<stop offset="1" stop-color="#F9CFAF"/>
</linearGradient>
<linearGradient id="paint12_linear_506_583" x1="311.062" y1="114.303" x2="311.062" y2="157.16" gradientUnits="userSpaceOnUse">
<stop stop-color="#ABFFDB"/>
<stop offset="1" stop-color="#AFFFBA"/>
</linearGradient>
<linearGradient id="paint13_linear_506_583" x1="382.829" y1="121.639" x2="382.829" y2="166.247" gradientUnits="userSpaceOnUse">
<stop stop-color="#ABFFDB"/>
<stop offset="1" stop-color="#AFFFBA"/>
</linearGradient>
<linearGradient id="paint14_linear_506_583" x1="356.659" y1="111.868" x2="356.659" y2="168.622" gradientUnits="userSpaceOnUse">
<stop stop-color="#ABFFDB"/>
<stop offset="1" stop-color="#AFFFBA"/>
</linearGradient>
<linearGradient id="paint15_linear_506_583" x1="358.395" y1="110.307" x2="358.395" y2="130.289" gradientUnits="userSpaceOnUse">
<stop stop-color="#ABFFDB"/>
<stop offset="1" stop-color="#AFFFBA"/>
</linearGradient>
<linearGradient id="paint16_linear_506_583" x1="360.551" y1="93.7028" x2="360.551" y2="125.367" gradientUnits="userSpaceOnUse">
<stop stop-color="#F9CFAF"/>
<stop offset="1" stop-color="#F9CFAF"/>
</linearGradient>
<linearGradient id="paint17_linear_506_583" x1="354.249" y1="86.9778" x2="354.249" y2="113.691" gradientUnits="userSpaceOnUse">
<stop stop-color="#FEE4C9"/>
<stop offset="0.975" stop-color="#F9CFAF"/>
</linearGradient>
<linearGradient id="paint18_linear_506_583" x1="361.286" y1="83.2061" x2="361.286" y2="98.586" gradientUnits="userSpaceOnUse">
<stop stop-color="#ABFFDB"/>
<stop offset="1" stop-color="#AFFFBA"/>
</linearGradient>
<linearGradient id="paint19_linear_506_583" x1="373.101" y1="95.4381" x2="373.101" y2="104.179" gradientUnits="userSpaceOnUse">
<stop stop-color="#ABFFDB"/>
<stop offset="1" stop-color="#AFFFBA"/>
</linearGradient>
<linearGradient id="paint20_linear_506_583" x1="363.813" y1="99.1526" x2="363.813" y2="107.025" gradientUnits="userSpaceOnUse">
<stop stop-color="#F9CFAF"/>
<stop offset="1" stop-color="#F9CFAF"/>
</linearGradient>
<linearGradient id="paint21_linear_506_583" x1="340.376" y1="161.942" x2="340.376" y2="168.662" gradientUnits="userSpaceOnUse">
<stop stop-color="#F9CFAF"/>
<stop offset="1" stop-color="#F9CFAF"/>
</linearGradient>
<linearGradient id="paint22_linear_506_583" x1="371.942" y1="155.166" x2="371.942" y2="167.822" gradientUnits="userSpaceOnUse">
<stop stop-color="#ABFFDB"/>
<stop offset="1" stop-color="#AFFFBA"/>
</linearGradient>
<linearGradient id="paint23_linear_506_583" x1="331.853" y1="267.882" x2="331.853" y2="275.817" gradientUnits="userSpaceOnUse">
<stop stop-color="#00434C"/>
<stop offset="1" stop-color="#00434C"/>
</linearGradient>
<linearGradient id="paint24_linear_506_583" x1="322.576" y1="250.998" x2="322.576" y2="276.216" gradientUnits="userSpaceOnUse">
<stop stop-color="#F9CFAF"/>
<stop offset="1" stop-color="#FEE4C9"/>
</linearGradient>
<linearGradient id="paint25_linear_506_583" x1="322.576" y1="250.998" x2="322.576" y2="276.216" gradientUnits="userSpaceOnUse">
<stop stop-color="#00434C"/>
<stop offset="1" stop-color="#00434C"/>
</linearGradient>
<linearGradient id="paint26_linear_506_583" x1="322.572" y1="264.411" x2="322.572" y2="276.215" gradientUnits="userSpaceOnUse">
<stop stop-color="#00434C"/>
<stop offset="1" stop-color="#00434C"/>
</linearGradient>
<linearGradient id="paint27_linear_506_583" x1="319.389" y1="185.376" x2="319.389" y2="253.429" gradientUnits="userSpaceOnUse">
<stop stop-color="#00434C"/>
<stop offset="1" stop-color="#00434C"/>
</linearGradient>
<linearGradient id="paint28_linear_506_583" x1="281.552" y1="59.8518" x2="281.552" y2="107.989" gradientUnits="userSpaceOnUse">
<stop stop-color="#ABFFDB"/>
<stop offset="1" stop-color="#AFFFBA"/>
</linearGradient>
<linearGradient id="paint29_linear_506_583" x1="247.606" y1="51.9209" x2="247.606" y2="123.812" gradientUnits="userSpaceOnUse">
<stop stop-color="#ABFFDB"/>
<stop offset="1" stop-color="#AFFFBA"/>
</linearGradient>
<linearGradient id="paint30_linear_506_583" x1="246.69" y1="47.499" x2="246.69" y2="65.188" gradientUnits="userSpaceOnUse">
<stop stop-color="#ABFFDB"/>
<stop offset="1" stop-color="#AFFFBA"/>
</linearGradient>
<linearGradient id="paint31_linear_506_583" x1="247.624" y1="38.176" x2="247.624" y2="60.766" gradientUnits="userSpaceOnUse">
<stop stop-color="#ABFFDB"/>
<stop offset="1" stop-color="#AFFFBA"/>
</linearGradient>
<linearGradient id="paint32_linear_506_583" x1="248.19" y1="17.1328" x2="248.19" y2="48.8791" gradientUnits="userSpaceOnUse">
<stop stop-color="#F9CFAF"/>
<stop offset="1" stop-color="#F9CFAF"/>
</linearGradient>
<linearGradient id="paint33_linear_506_583" x1="253.052" y1="31.4749" x2="253.052" y2="38.4409" gradientUnits="userSpaceOnUse">
<stop stop-color="#F9CFAF"/>
<stop offset="1" stop-color="#F9CFAF"/>
</linearGradient>
<linearGradient id="paint34_linear_506_583" x1="253.225" y1="30.2607" x2="253.225" y2="34.5713" gradientUnits="userSpaceOnUse">
<stop/>
<stop offset="1" stop-color="#242424"/>
</linearGradient>
<linearGradient id="paint35_linear_506_583" x1="243.835" y1="19.0908" x2="243.835" y2="22.9733" gradientUnits="userSpaceOnUse">
<stop stop-color="#AFFFBA"/>
<stop offset="1" stop-color="#ABFFDB"/>
</linearGradient>
<linearGradient id="paint36_linear_506_583" x1="241.313" y1="25.906" x2="241.313" y2="27.2738" gradientUnits="userSpaceOnUse">
<stop stop-color="#AFFFBA"/>
<stop offset="1" stop-color="#ABFFDB"/>
</linearGradient>
<linearGradient id="paint37_linear_506_583" x1="252.241" y1="41.4299" x2="252.241" y2="42.386" gradientUnits="userSpaceOnUse">
<stop stop-color="#F9CFAF"/>
<stop offset="1" stop-color="#F9CFAF"/>
</linearGradient>
<linearGradient id="paint38_linear_506_583" x1="239.984" y1="33.3467" x2="239.984" y2="40.5122" gradientUnits="userSpaceOnUse">
<stop stop-color="#F9CFAF"/>
<stop offset="1" stop-color="#F9CFAF"/>
</linearGradient>
<linearGradient id="paint39_linear_506_583" x1="247.46" y1="123.812" x2="247.46" y2="266.023" gradientUnits="userSpaceOnUse">
<stop stop-color="#002B4A"/>
<stop offset="1" stop-color="#00434C"/>
</linearGradient>
<linearGradient id="paint40_linear_506_583" x1="260.381" y1="132.066" x2="260.381" y2="145.217" gradientUnits="userSpaceOnUse">
<stop stop-color="#ABFFDB"/>
<stop offset="1" stop-color="#AFFFBA"/>
</linearGradient>
<linearGradient id="paint41_linear_506_583" x1="257.257" y1="135.025" x2="257.257" y2="144.231" gradientUnits="userSpaceOnUse">
<stop stop-color="#ABFFDB"/>
<stop offset="1" stop-color="#AFFFBA"/>
</linearGradient>
<linearGradient id="paint42_linear_506_583" x1="237.861" y1="134.368" x2="237.861" y2="143.244" gradientUnits="userSpaceOnUse">
<stop stop-color="#ABFFDB"/>
<stop offset="1" stop-color="#AFFFBA"/>
</linearGradient>
<linearGradient id="paint43_linear_506_583" x1="239.011" y1="137.655" x2="239.011" y2="149.491" gradientUnits="userSpaceOnUse">
<stop stop-color="#ABFFDB"/>
<stop offset="1" stop-color="#AFFFBA"/>
</linearGradient>
<linearGradient id="paint44_linear_506_583" x1="247.394" y1="125.162" x2="247.394" y2="126.162" gradientUnits="userSpaceOnUse">
<stop stop-color="#ABFFDB"/>
<stop offset="1" stop-color="#AFFFBA"/>
</linearGradient>
<linearGradient id="paint45_linear_506_583" x1="208.332" y1="274.189" x2="208.332" y2="276.628" gradientUnits="userSpaceOnUse">
<stop stop-color="#ABFFDB"/>
<stop offset="1" stop-color="#AFFFBA"/>
</linearGradient>
<linearGradient id="paint46_linear_506_583" x1="285.801" y1="274.189" x2="285.801" y2="276.628" gradientUnits="userSpaceOnUse">
<stop stop-color="#ABFFDB"/>
<stop offset="1" stop-color="#AFFFBA"/>
</linearGradient>
<linearGradient id="paint47_linear_506_583" x1="212.687" y1="60.2058" x2="212.687" y2="100.89" gradientUnits="userSpaceOnUse">
<stop stop-color="#ABFFDB"/>
<stop offset="1" stop-color="#AFFFBA"/>
</linearGradient>
<linearGradient id="paint48_linear_506_583" x1="250.862" y1="87.8171" x2="250.862" y2="108.012" gradientUnits="userSpaceOnUse">
<stop stop-color="#ABFFDB"/>
<stop offset="1" stop-color="#AFFFBA"/>
</linearGradient>
<linearGradient id="paint49_linear_506_583" x1="234.469" y1="87.46" x2="234.469" y2="106.844" gradientUnits="userSpaceOnUse">
<stop stop-color="#ABFFDB"/>
<stop offset="1" stop-color="#AFFFBA"/>
</linearGradient>
<linearGradient id="paint50_linear_506_583" x1="272.599" y1="87.0869" x2="272.599" y2="93.0559" gradientUnits="userSpaceOnUse">
<stop stop-color="#FEE4C9"/>
<stop offset="1" stop-color="#F9CFAF"/>
</linearGradient>
<linearGradient id="paint51_linear_506_583" x1="189.523" y1="138.308" x2="189.523" y2="166.309" gradientUnits="userSpaceOnUse">
<stop stop-color="#ABFFDB"/>
<stop offset="1" stop-color="#AFFFBA"/>
</linearGradient>
<linearGradient id="paint52_linear_506_583" x1="173.825" y1="164.559" x2="173.825" y2="166.613" gradientUnits="userSpaceOnUse">
<stop stop-color="#ABFFDB"/>
<stop offset="1" stop-color="#AFFFBA"/>
</linearGradient>
<linearGradient id="paint53_linear_506_583" x1="189.996" y1="164.559" x2="189.996" y2="166.613" gradientUnits="userSpaceOnUse">
<stop stop-color="#ABFFDB"/>
<stop offset="1" stop-color="#AFFFBA"/>
</linearGradient>
<linearGradient id="paint54_linear_506_583" x1="219.841" y1="150.295" x2="219.841" y2="166.654" gradientUnits="userSpaceOnUse">
<stop stop-color="#ABFFDB"/>
<stop offset="1" stop-color="#AFFFBA"/>
</linearGradient>
<linearGradient id="paint55_linear_506_583" x1="225.459" y1="153.347" x2="225.459" y2="164.427" gradientUnits="userSpaceOnUse">
<stop stop-color="#ABFFDB"/>
<stop offset="1" stop-color="#AFFFBA"/>
</linearGradient>
<linearGradient id="paint56_linear_506_583" x1="285.193" y1="138.308" x2="285.193" y2="166.309" gradientUnits="userSpaceOnUse">
<stop stop-color="#ABFFDB"/>
<stop offset="1" stop-color="#AFFFBA"/>
</linearGradient>
<linearGradient id="paint57_linear_506_583" x1="300.89" y1="166.613" x2="300.89" y2="164.559" gradientUnits="userSpaceOnUse">
<stop stop-color="#ABFFDB"/>
<stop offset="1" stop-color="#AFFFBA"/>
</linearGradient>
<linearGradient id="paint58_linear_506_583" x1="291.145" y1="166.613" x2="291.145" y2="164.559" gradientUnits="userSpaceOnUse">
<stop stop-color="#ABFFDB"/>
<stop offset="1" stop-color="#AFFFBA"/>
</linearGradient>
<linearGradient id="paint59_linear_506_583" x1="283.74" y1="147.937" x2="283.74" y2="152.958" gradientUnits="userSpaceOnUse">
<stop stop-color="#ABFFDB"/>
<stop offset="1" stop-color="#AFFFBA"/>
</linearGradient>
<linearGradient id="paint60_linear_506_583" x1="92.8867" y1="64.9626" x2="92.8867" y2="145.352" gradientUnits="userSpaceOnUse">
<stop stop-color="#ABFFDB"/>
<stop offset="1" stop-color="#AFFFBA"/>
</linearGradient>
<linearGradient id="paint61_linear_506_583" x1="107.111" y1="142.613" x2="107.111" y2="158.553" gradientUnits="userSpaceOnUse">
<stop stop-color="#ABFFDB"/>
<stop offset="1" stop-color="#AFFFBA"/>
</linearGradient>
<linearGradient id="paint62_linear_506_583" x1="108.001" y1="145.673" x2="108.001" y2="156.62" gradientUnits="userSpaceOnUse">
<stop stop-color="#ABFFDB"/>
<stop offset="1" stop-color="#AFFFBA"/>
</linearGradient>
<linearGradient id="paint63_linear_506_583" x1="61.3269" y1="60.7461" x2="61.3269" y2="102.055" gradientUnits="userSpaceOnUse">
<stop stop-color="#ABFFDB"/>
<stop offset="1" stop-color="#AFFFBA"/>
</linearGradient>
<linearGradient id="paint64_linear_506_583" x1="64.8818" y1="37.7109" x2="64.8818" y2="58.3939" gradientUnits="userSpaceOnUse">
<stop stop-color="#ABFFDB"/>
<stop offset="1" stop-color="#AFFFBA"/>
</linearGradient>
<linearGradient id="paint65_linear_506_583" x1="65.4123" y1="99.536" x2="65.4123" y2="99.9152" gradientUnits="userSpaceOnUse">
<stop stop-color="#ABFFDB"/>
<stop offset="1" stop-color="#AFFFBA"/>
</linearGradient>
<linearGradient id="paint66_linear_506_583" x1="67.3551" y1="37.0671" x2="67.3551" y2="98.4592" gradientUnits="userSpaceOnUse">
<stop stop-color="#ABFFDB"/>
<stop offset="1" stop-color="#AFFFBA"/>
</linearGradient>
<linearGradient id="paint67_linear_506_583" x1="87.6766" y1="175.11" x2="87.6766" y2="276.09" gradientUnits="userSpaceOnUse">
<stop stop-color="#F9CFAF"/>
<stop offset="1" stop-color="#F9CFAF"/>
</linearGradient>
<linearGradient id="paint68_linear_506_583" x1="62.7489" y1="175.985" x2="62.7489" y2="277.814" gradientUnits="userSpaceOnUse">
<stop stop-color="#FEE4C9"/>
<stop offset="1" stop-color="#F9CFAF"/>
</linearGradient>
<linearGradient id="paint69_linear_506_583" x1="83.9272" y1="60.946" x2="83.9272" y2="195.724" gradientUnits="userSpaceOnUse">
<stop stop-color="#ABFFDB"/>
<stop offset="1" stop-color="#AFFFBA"/>
</linearGradient>
<linearGradient id="paint70_linear_506_583" x1="81.5447" y1="110.958" x2="81.5447" y2="195.724" gradientUnits="userSpaceOnUse">
<stop stop-color="#002B4A"/>
<stop offset="1" stop-color="#00434C"/>
</linearGradient>
<linearGradient id="paint71_linear_506_583" x1="99.3053" y1="24.7856" x2="99.3053" y2="39.426" gradientUnits="userSpaceOnUse">
<stop stop-color="#ABFFDB"/>
<stop offset="1" stop-color="#AFFFBA"/>
</linearGradient>
<linearGradient id="paint72_linear_506_583" x1="92.2403" y1="26.9331" x2="92.2403" y2="28.0591" gradientUnits="userSpaceOnUse">
<stop stop-color="#ABFFDB"/>
<stop offset="1" stop-color="#AFFFBA"/>
</linearGradient>
<linearGradient id="paint73_linear_506_583" x1="88.2375" y1="26.4807" x2="88.2375" y2="62.946" gradientUnits="userSpaceOnUse">
<stop stop-color="#F9CFAF"/>
<stop offset="1" stop-color="#FEE4C9"/>
</linearGradient>
<linearGradient id="paint74_linear_506_583" x1="85.2412" y1="53.6541" x2="85.2412" y2="69.1121" gradientUnits="userSpaceOnUse">
<stop stop-color="#ABFFDB"/>
<stop offset="1" stop-color="#AFFFBA"/>
</linearGradient>
<linearGradient id="paint75_linear_506_583" x1="92.7001" y1="127.281" x2="92.7001" y2="137.499" gradientUnits="userSpaceOnUse">
<stop stop-color="#FEE4C9"/>
<stop offset="1" stop-color="#F9CFAF"/>
</linearGradient>
<linearGradient id="paint76_linear_506_583" x1="71.9565" y1="65.1372" x2="71.9565" y2="132.301" gradientUnits="userSpaceOnUse">
<stop stop-color="#ABFFDB"/>
<stop offset="1" stop-color="#AFFFBA"/>
</linearGradient>
<linearGradient id="paint77_linear_506_583" x1="152.998" y1="79.5017" x2="152.998" y2="115.416" gradientUnits="userSpaceOnUse">
<stop stop-color="#F9CFAF"/>
<stop offset="1" stop-color="#F9CFAF"/>
</linearGradient>
<linearGradient id="paint78_linear_506_583" x1="146.988" y1="92.7909" x2="146.988" y2="94.4569" gradientUnits="userSpaceOnUse">
<stop stop-color="#ABFFDB"/>
<stop offset="1" stop-color="#AFFFBA"/>
</linearGradient>
<linearGradient id="paint79_linear_506_583" x1="158.751" y1="76.6409" x2="158.751" y2="91.0819" gradientUnits="userSpaceOnUse">
<stop stop-color="#ABFFDB"/>
<stop offset="1" stop-color="#AFFFBA"/>
</linearGradient>
<linearGradient id="paint80_linear_506_583" x1="154.842" y1="86.7019" x2="154.842" y2="97.5459" gradientUnits="userSpaceOnUse">
<stop stop-color="#ABFFDB"/>
<stop offset="1" stop-color="#AFFFBA"/>
</linearGradient>
<linearGradient id="paint81_linear_506_583" x1="155.574" y1="100.364" x2="155.574" y2="106.134" gradientUnits="userSpaceOnUse">
<stop stop-color="#ABFFDB"/>
<stop offset="1" stop-color="#AFFFBA"/>
</linearGradient>
<linearGradient id="paint82_linear_506_583" x1="154.446" y1="272.32" x2="154.446" y2="275.346" gradientUnits="userSpaceOnUse">
<stop stop-color="#ABFFDB"/>
<stop offset="1" stop-color="#AFFFBA"/>
</linearGradient>
<linearGradient id="paint83_linear_506_583" x1="195.167" y1="269.275" x2="195.167" y2="275.348" gradientUnits="userSpaceOnUse">
<stop stop-color="#ABFFDB"/>
<stop offset="1" stop-color="#AFFFBA"/>
</linearGradient>
<linearGradient id="paint84_linear_506_583" x1="208.086" y1="201.081" x2="208.086" y2="202.01" gradientUnits="userSpaceOnUse">
<stop stop-color="#ABFFDB"/>
<stop offset="1" stop-color="#AFFFBA"/>
</linearGradient>
<linearGradient id="paint85_linear_506_583" x1="197.641" y1="203.021" x2="197.641" y2="206.331" gradientUnits="userSpaceOnUse">
<stop stop-color="#ABFFDB"/>
<stop offset="1" stop-color="#AFFFBA"/>
</linearGradient>
<linearGradient id="paint86_linear_506_583" x1="197.498" y1="127.328" x2="197.498" y2="174.004" gradientUnits="userSpaceOnUse">
<stop stop-color="#FEE4C9"/>
<stop offset="1" stop-color="#F9CFAF"/>
</linearGradient>
<linearGradient id="paint87_linear_506_583" x1="143.476" y1="103.951" x2="143.476" y2="114.598" gradientUnits="userSpaceOnUse">
<stop stop-color="#ABFFDB"/>
<stop offset="1" stop-color="#AFFFBA"/>
</linearGradient>
<linearGradient id="paint88_linear_506_583" x1="182.887" y1="151.928" x2="182.887" y2="174.976" gradientUnits="userSpaceOnUse">
<stop stop-color="#ABFFDB"/>
<stop offset="1" stop-color="#AFFFBA"/>
</linearGradient>
<linearGradient id="paint89_linear_506_583" x1="149.305" y1="107.894" x2="149.305" y2="194.334" gradientUnits="userSpaceOnUse">
<stop stop-color="#ABFFDB"/>
<stop offset="1" stop-color="#AFFFBA"/>
</linearGradient>
<linearGradient id="paint90_linear_506_583" x1="215.946" y1="130.517" x2="215.946" y2="134.019" gradientUnits="userSpaceOnUse">
<stop stop-color="#ABFFDB"/>
<stop offset="1" stop-color="#AFFFBA"/>
</linearGradient>
<linearGradient id="paint91_linear_506_583" x1="216.084" y1="133.106" x2="216.084" y2="137.681" gradientUnits="userSpaceOnUse">
<stop stop-color="#ABFFDB"/>
<stop offset="1" stop-color="#AFFFBA"/>
</linearGradient>
</defs>
</svg>
